<svg width="113" height="112" viewBox="0 0 113 112" fill="none" xmlns="http://www.w3.org/2000/svg">
<g clip-path="url(#clip0_242_5225)">
<mask id="mask0_242_5225" style="mask-type:luminance" maskUnits="userSpaceOnUse" x="0" y="0" width="113" height="112">
<path d="M112.5 0H0.5V112H112.5V0Z" fill="white"/>
</mask>
<g mask="url(#mask0_242_5225)">
<path d="M15.7704 52.0659C10.4951 56.7633 5.82895 65.0984 19.248 80.0037C26.3366 87.8774 26.3466 93.442 24.2312 97.6697" stroke="#004BB7" stroke-width="3.54375" stroke-linecap="round" stroke-linejoin="round"/>
<path d="M17.687 52.3691C12.056 56.8293 5.20214 63.9298 19.2479 79.5313C25.4355 86.404 26.2296 91.6162 24.9248 95.7241" stroke="#235DFD" stroke-width="3.54375" stroke-linecap="round" stroke-linejoin="round"/>
<path d="M51.3582 15.5713C50.2641 21.9762 51.7295 27.5935 60.5354 27.091C67.5948 26.6881 51.7908 35.6775 58.6604 40.3373C58.8494 40.4655 59.0327 40.5913 59.2102 40.7146" stroke="#BCBC42" stroke-width="2.67123" stroke-linecap="round" stroke-linejoin="round"/>
<path d="M52.0284 16.1724C51.5923 21.8763 53.6294 26.623 61.8861 26.1517C68.9455 25.7488 52.7364 34.973 59.6059 39.6328C59.9015 39.8333 60.1826 40.0292 60.4499 40.2206" stroke="#F8F74A" stroke-width="2.67123" stroke-linecap="round" stroke-linejoin="round"/>
<path d="M86.2664 72.7669L84.3695 73.7435C84.367 73.7434 84.3671 73.7436 84.3646 73.7435C79.1792 74.6956 67.424 68.2503 55.89 57.7595C44.3523 47.2654 36.8225 36.1692 37.2863 30.9169L38.0778 28.9351C41.5495 25.1195 55.1508 31.8392 68.4569 43.9427C81.7629 56.0463 89.7381 68.9514 86.2664 72.7669Z" fill="#D19A1F"/>
<mask id="mask1_242_5225" style="mask-type:luminance" maskUnits="userSpaceOnUse" x="75" y="66" width="13" height="8">
<path d="M75.5796 71.5142L86.0352 66.0075C86.0352 66.0075 87.7162 69.4753 86.8968 71.6313C86.0773 73.7873 84.0835 75.5083 75.5796 71.5142Z" fill="url(#paint0_linear_242_5225)"/>
</mask>
<g mask="url(#mask1_242_5225)">
<path d="M75.5796 71.5142L86.0352 66.0075C86.0352 66.0075 87.7162 69.4753 86.8968 71.6313C86.0773 73.7873 84.0835 75.5083 75.5796 71.5142Z" fill="url(#paint1_linear_242_5225)"/>
</g>
<mask id="mask2_242_5225" style="mask-type:luminance" maskUnits="userSpaceOnUse" x="50" y="37" width="31" height="29">
<path d="M80.0393 55.9211L65.5671 65.4926C62.7462 63.2731 54.3126 56.5468 50.897 52.7025L60.2656 37.5449C60.2656 37.5449 75.2444 49.9474 80.0393 55.9211Z" fill="url(#paint2_linear_242_5225)"/>
</mask>
<g mask="url(#mask2_242_5225)">
<path d="M80.0393 55.9211L65.5671 65.4926C62.7462 63.2731 54.3126 56.5468 50.897 52.7025L60.2656 37.5449C60.2656 37.5449 75.2444 49.9474 80.0393 55.9211Z" fill="url(#paint3_linear_242_5225)"/>
</g>
<mask id="mask3_242_5225" style="mask-type:luminance" maskUnits="userSpaceOnUse" x="37" y="27" width="16" height="20">
<path d="M52.6656 32.2883L45.4649 46.0263C45.4649 46.0263 43.5869 44.8269 40.5797 40.0543C35.7902 32.4529 37.2872 27.8669 41.5704 27.8844L41.6223 27.8848C42.2272 27.893 42.8806 27.9818 43.5618 28.1326C46.6431 28.8142 50.3033 30.7654 52.6656 32.2883Z" fill="url(#paint4_linear_242_5225)"/>
</mask>
<g mask="url(#mask3_242_5225)">
<path d="M52.6656 32.2883L45.4649 46.0263C45.4649 46.0263 43.5869 44.8269 40.5797 40.0543C35.7902 32.4529 37.2872 27.8669 41.5704 27.8844L41.6223 27.8848C42.2272 27.893 42.8806 27.9818 43.5618 28.1326C46.6431 28.8142 50.3033 30.7654 52.6656 32.2883Z" fill="url(#paint5_linear_242_5225)"/>
</g>
<path d="M84.3643 73.7437L26.2841 103.599C18.4298 107.637 9.7755 99.7644 13.0508 91.5622L37.286 30.917C36.8221 36.1694 44.3529 47.2646 55.8897 57.7596C67.4227 68.2515 79.1788 74.6958 84.3643 73.7437Z" fill="url(#paint6_linear_242_5225)"/>
<mask id="mask4_242_5225" style="mask-type:luminance" maskUnits="userSpaceOnUse" x="20" y="70" width="65" height="35">
<path d="M72.8889 70.1278L20.7671 104.384L23.7547 104.129L84.0446 73.4448C84.0446 73.4448 78.2313 74.6571 72.8889 70.1278Z" fill="url(#paint7_linear_242_5225)"/>
</mask>
<g mask="url(#mask4_242_5225)">
<path d="M72.8889 70.1278L20.7671 104.384L23.7547 104.129L84.0446 73.4448C84.0446 73.4448 78.2313 74.6571 72.8889 70.1278Z" fill="url(#paint8_linear_242_5225)"/>
</g>
<path d="M71.7358 80.2353L65.2656 83.703C57.5994 81.7159 51.2129 77.4698 44.0145 70.921C36.7419 64.3044 31.4965 56.8506 29.0599 51.5019L32.3506 43.2638C33.229 48.7464 39.5158 57.7834 48.8014 66.2251C57.3084 73.9591 66.0666 79.1462 71.7358 80.2353Z" fill="url(#paint9_linear_242_5225)"/>
<path d="M48.2181 92.324L41.5557 95.7474C40.3109 95.2345 38.9828 94.5899 37.6074 93.8266C36.1433 93.0141 34.6317 92.0579 33.1198 90.9698C31.7024 89.9497 30.287 88.8132 28.9115 87.5628C24.6112 83.654 21.3284 79.4549 19.4601 75.5242L22.0288 69.0968C23.7266 72.8908 27.5938 77.8702 32.7842 82.5934C34.4635 84.1216 36.1586 85.5105 37.8149 86.7313C37.9321 86.8175 38.0482 86.9021 38.1619 86.985C38.5069 87.2364 38.8542 87.4774 39.1922 87.7157C39.4198 87.8762 39.6475 88.0296 39.8729 88.1805C40.4599 88.5735 41.0399 88.943 41.6083 89.2885C41.7705 89.3894 41.9346 89.4855 42.0968 89.5815C42.4539 89.7929 42.8041 89.9917 43.1518 90.1822C45.0179 91.2042 46.7406 91.9342 48.2181 92.324Z" fill="url(#paint10_linear_242_5225)"/>
<path d="M29.8412 101.771L29.167 102.117L26.2844 103.599C25.5507 103.977 25.0085 104.09 24.2721 104.27C23.7467 104.106 23.2148 103.894 22.6812 103.638C21.9475 103.286 21.2116 102.856 20.4841 102.369C19.4208 101.657 18.3751 100.82 17.3961 99.9298C15.0422 97.788 13.5083 95.8736 12.499 93.4565C12.6119 92.7699 12.7725 92.259 13.051 91.5624L14.1741 88.7523L14.4718 88.0061C14.5942 88.3191 14.7482 88.6506 14.9278 88.9956C16.0158 91.0852 18.1002 93.6739 20.8108 96.1422C21.9749 97.2023 23.1531 98.1371 24.2855 98.9396C24.6774 99.2173 25.0671 99.4789 25.4474 99.7211C25.5226 99.7692 25.5977 99.815 25.6707 99.8603C26.178 100.175 26.6718 100.455 27.1461 100.701C27.748 101.014 28.3205 101.27 28.8518 101.467C29.2003 101.595 29.5301 101.698 29.8412 101.771Z" fill="url(#paint11_linear_242_5225)"/>
<path d="M84.3643 73.7438L26.2842 103.599C25.0805 104.218 23.5769 104.91 22.3796 105.19C18.4535 106.108 11.8195 100.523 11.8639 96.1467C11.8767 94.8933 12.5246 92.88 13.0508 91.5623L37.286 30.9172C36.8222 36.1695 44.3529 47.2647 55.8897 57.7598C67.4227 68.2516 79.1789 74.6959 84.3643 73.7438Z" stroke="#9B5C00" stroke-width="1.89" stroke-linecap="round" stroke-linejoin="round"/>
<path d="M29.6148 52.6599L28.5748 50.1695L31.7417 42.2446L32.7503 44.8139L29.6148 52.6599Z" fill="#4F0082"/>
<path d="M20.0286 76.6482C20.0286 76.6482 19.1468 74.9793 19.0192 74.0813L21.3895 68.1496L22.5719 70.2842L20.0286 76.6482Z" fill="#4F0082"/>
<path d="M13.0449 94.6202C12.0596 92.8658 11.8733 92.0107 11.8733 92.0107C11.8733 92.0107 11.8565 92.0043 12.1731 91.2119L13.8834 86.902L15.0224 89.1745L13.928 91.9131C13.6659 92.5694 13.0449 94.6202 13.0449 94.6202Z" fill="#4F0082"/>
<path d="M26.2347 104.68C26.2347 104.68 24.8316 104.602 23.3029 103.916C23.2711 103.902 25.277 103.054 25.852 102.758L28.5721 101.36L30.9853 102.239L26.7161 104.439C26.4265 104.587 26.2347 104.68 26.2347 104.68Z" fill="#44006B"/>
<path d="M43.2754 95.9276C41.7805 95.75 40.4365 95.2617 40.4365 95.2617L46.9342 91.9216L49.2269 92.8682L43.2754 95.9276Z" fill="#44006B"/>
<path d="M66.8154 83.8269C65.3717 83.7046 63.7515 83.2769 63.7515 83.2769L70.3242 79.8984L72.9442 80.6838L66.8154 83.8269Z" fill="#44006B"/>
<path d="M57.8769 61.1291C48.4059 54.141 37.5232 40.0861 37.5784 35.3682" stroke="#F4C439" stroke-width="1.89" stroke-linecap="round" stroke-linejoin="round"/>
<path d="M86.2659 72.7674L84.369 73.744C84.3665 73.7439 84.3666 73.7441 84.3641 73.744C79.1787 74.6961 67.4235 68.2507 55.8895 57.7599C44.3518 47.2659 36.822 36.1697 37.2859 30.9173L38.0773 28.9355C41.549 25.12 55.1503 31.8397 68.4564 43.9432C81.7624 56.0468 89.7376 68.9519 86.2659 72.7674Z" stroke="#9B5C00" stroke-width="1.89" stroke-linecap="round" stroke-linejoin="round"/>
<mask id="mask5_242_5225" style="mask-type:luminance" maskUnits="userSpaceOnUse" x="-3" y="-9" width="122" height="122">
<path d="M-2.88623 -8.19873H118.074V112.761H-2.88623V-8.19873Z" fill="white"/>
</mask>
<g mask="url(#mask5_242_5225)">
<path d="M41.6335 39.0782L42.0573 43.8037C42.094 44.2139 41.7915 44.5763 41.3813 44.613L36.6557 45.0368C36.2455 45.0735 35.8831 44.771 35.8464 44.3608L35.4226 39.6352C35.386 39.225 35.6885 38.8626 36.0987 38.8259L40.8242 38.4022C41.2344 38.3655 41.5968 38.668 41.6335 39.0782Z" fill="#184D9B"/>
<path d="M41.6334 39.0783L42.0035 43.204C42.0402 43.6142 41.7375 43.9766 41.3273 44.0132L37.2015 44.3833C36.7913 44.42 36.4291 44.1176 36.3924 43.7074L36.0223 39.5816C35.9857 39.1714 36.2882 38.809 36.6984 38.7723L40.8241 38.4022C41.2343 38.3656 41.5968 38.668 41.6334 39.0783Z" fill="#2C67EA"/>
</g>
<mask id="mask6_242_5225" style="mask-type:luminance" maskUnits="userSpaceOnUse" x="-27" y="-7" width="122" height="122">
<path d="M-26.5112 -6.01123H94.4488V114.949H-26.5112V-6.01123Z" fill="white"/>
</mask>
<g mask="url(#mask6_242_5225)">
<path d="M36.2828 8.2896L34.6848 11.7979C34.5462 12.1023 34.1869 12.2366 33.8825 12.0979L30.3744 10.4999C30.0699 10.3613 29.9355 10.0021 30.0741 9.69764L31.6721 6.18934C31.8107 5.88491 32.1702 5.75063 32.4746 5.88925L35.9827 7.48727C36.2872 7.62589 36.4214 7.98516 36.2828 8.2896Z" fill="#CE194D"/>
<path d="M36.283 8.28953L34.8879 11.3525C34.7493 11.6569 34.3898 11.7913 34.0854 11.6527L31.0226 10.2574C30.7182 10.1188 30.5838 9.75957 30.7224 9.45513L32.1175 6.39222C32.2561 6.08778 32.6155 5.95332 32.92 6.09193L35.9829 7.48721C36.2874 7.62582 36.4216 7.9851 36.283 8.28953Z" fill="#D62F58"/>
</g>
<mask id="mask7_242_5225" style="mask-type:luminance" maskUnits="userSpaceOnUse" x="11" y="-9" width="122" height="122">
<path d="M11.2886 -8.19873H132.249V112.761H11.2886V-8.19873Z" fill="white"/>
</mask>
<g mask="url(#mask7_242_5225)">
<path d="M80.9596 36.7683L79.9701 32.1281C79.8841 31.7253 80.141 31.3293 80.5438 31.2434L85.184 30.2538C85.5868 30.1678 85.9828 30.4245 86.0688 30.8273L87.0583 35.4677C87.1443 35.8705 86.8874 36.2663 86.4846 36.3522L81.8445 37.3418C81.4417 37.4278 81.0456 37.1711 80.9596 36.7683Z" fill="#BCBC42"/>
<path d="M80.9597 36.7683L80.0958 32.7169C80.0098 32.3141 80.2668 31.9181 80.6696 31.8321L84.7207 30.9682C85.1235 30.8822 85.5195 31.1392 85.6055 31.542L86.4694 35.5931C86.5554 35.9959 86.2984 36.3919 85.8956 36.4778L81.8445 37.3418C81.4417 37.4278 81.0457 37.1711 80.9597 36.7683Z" fill="#F8F74A"/>
</g>
<mask id="mask8_242_5225" style="mask-type:luminance" maskUnits="userSpaceOnUse" x="-18" y="-9" width="122" height="122">
<path d="M-17.061 -8.19873H103.899V112.761H-17.061V-8.19873Z" fill="white"/>
</mask>
<g mask="url(#mask8_242_5225)">
<path d="M16.3907 31.5329L16.8545 26.8111C16.8948 26.4014 17.2596 26.1014 17.6694 26.1417L22.3913 26.6058C22.801 26.6461 23.1006 27.0108 23.0603 27.4205L22.5963 32.1424C22.556 32.5522 22.1913 32.8518 21.7815 32.8115L17.0597 32.3477C16.65 32.3074 16.3504 31.9427 16.3907 31.5329Z" fill="#CE194D"/>
<path d="M16.3906 31.5328L16.7955 27.4102C16.8358 27.0005 17.2008 26.7008 17.6105 26.7411L21.7328 27.1461C22.1426 27.1864 22.4423 27.5513 22.402 27.9611L21.997 32.0834C21.9567 32.4931 21.5918 32.7929 21.182 32.7525L17.0597 32.3476C16.6499 32.3072 16.3503 31.9425 16.3906 31.5328Z" fill="#F95890"/>
</g>
<mask id="mask9_242_5225" style="mask-type:luminance" maskUnits="userSpaceOnUse" x="25" y="-9" width="122" height="122">
<path d="M25.4639 -8.19873H146.424V112.761H25.4639V-8.19873Z" fill="white"/>
</mask>
<g mask="url(#mask9_242_5225)">
<path d="M85.1144 25.824L80.4006 26.3611C79.9913 26.4078 79.6218 26.1139 79.5751 25.7047L79.0379 20.9906C78.9912 20.5814 79.2852 20.2121 79.6944 20.1654L84.4085 19.6282C84.8177 19.5815 85.187 19.8755 85.2337 20.2847L85.7708 24.9985C85.8175 25.4078 85.5236 25.7773 85.1144 25.824Z" fill="#D18927"/>
<path d="M85.1143 25.8241L80.9986 26.2929C80.5894 26.3396 80.2202 26.0458 80.1735 25.6366L79.7044 21.5209C79.6577 21.1117 79.9517 20.7423 80.3609 20.6957L84.4764 20.2266C84.8856 20.1799 85.2551 20.4738 85.3018 20.883L85.7707 24.9986C85.8174 25.4079 85.5235 25.7774 85.1143 25.8241Z" fill="#FC9826"/>
</g>
<mask id="mask10_242_5225" style="mask-type:luminance" maskUnits="userSpaceOnUse" x="-3" y="-9" width="122" height="122">
<path d="M118.074 -8.19873H-2.88628V112.761H118.074V-8.19873Z" fill="white"/>
</mask>
<g mask="url(#mask10_242_5225)">
<path d="M57.3423 10.5928L60.6662 13.9783C60.9548 14.2721 61.4268 14.2767 61.7206 13.988L65.1062 10.6641C65.4 10.3755 65.4045 9.90345 65.1159 9.60965L61.792 6.22413C61.5033 5.93033 61.0313 5.92578 60.7375 6.21439L57.352 9.53833C57.0582 9.82695 57.0536 10.299 57.3423 10.5928Z" fill="#184D9B"/>
<path d="M57.3421 10.5929L60.2441 13.5487C60.5328 13.8425 61.0049 13.8469 61.2987 13.5583L64.2546 10.6562C64.5483 10.3676 64.5528 9.89582 64.2642 9.60202L61.3622 6.64613C61.0736 6.35234 60.6015 6.34779 60.3078 6.6364L57.3519 9.53841C57.0581 9.82702 57.0535 10.2991 57.3421 10.5929Z" fill="#2C67EA"/>
</g>
<mask id="mask11_242_5225" style="mask-type:luminance" maskUnits="userSpaceOnUse" x="-27" y="-9" width="122" height="122">
<path d="M94.4487 -8.19873H-26.5113V112.761H94.4487V-8.19873Z" fill="white"/>
</mask>
<g mask="url(#mask11_242_5225)">
<path d="M33.9374 21.2515L34.7405 25.9278C34.8102 26.3335 35.1958 26.6058 35.6015 26.5362L40.2776 25.733C40.6833 25.6634 40.9559 25.2779 40.8862 24.8721L40.0831 20.1959C40.0135 19.7901 39.6277 19.5177 39.2219 19.5873L34.5459 20.3905C34.1401 20.4602 33.8678 20.8457 33.9374 21.2515Z" fill="#CE194D"/>
<path d="M33.9373 21.2517L34.6384 25.3343C34.7081 25.7401 35.0937 26.0127 35.4995 25.9431L39.582 25.2416C39.9878 25.172 40.2603 24.7865 40.1907 24.3807L39.4895 20.2981C39.4199 19.8924 39.0342 19.6198 38.6285 19.6894L34.5458 20.3907C34.14 20.4603 33.8677 20.8459 33.9373 21.2517Z" fill="#D62F58"/>
</g>
<mask id="mask12_242_5225" style="mask-type:luminance" maskUnits="userSpaceOnUse" x="11" y="-9" width="122" height="122">
<path d="M132.249 -8.19873H11.289V112.761H132.249V-8.19873Z" fill="white"/>
</mask>
<g mask="url(#mask12_242_5225)">
<path d="M64.5431 18.1528L69.2321 18.8762C69.6392 18.9391 70.0199 18.66 70.0827 18.2529L70.8062 13.5639C70.869 13.1569 70.5902 12.7761 70.1831 12.7132L65.4939 11.9899C65.0868 11.927 64.7063 12.206 64.6435 12.6131L63.9201 17.3021C63.8572 17.7091 64.1361 18.0899 64.5431 18.1528Z" fill="#BCBC42"/>
<path d="M64.5431 18.1527L68.6372 18.7842C69.0442 18.847 69.4249 18.5679 69.4878 18.1609L70.1193 14.0671C70.1822 13.6601 69.9031 13.2794 69.4961 13.2165L65.4023 12.5849C64.9952 12.5221 64.6145 12.8012 64.5517 13.2082L63.9201 17.302C63.8572 17.709 64.1361 18.0898 64.5431 18.1527Z" fill="#F8F74A"/>
</g>
<mask id="mask13_242_5225" style="mask-type:luminance" maskUnits="userSpaceOnUse" x="-18" y="-9" width="122" height="122">
<path d="M103.899 -8.19873H-17.0611V112.761H103.899V-8.19873Z" fill="white"/>
</mask>
<g mask="url(#mask13_242_5225)">
<path d="M66.2104 5.97387L62.2883 4.61298C61.9479 4.49493 61.576 4.67501 61.4579 5.01539L60.0972 8.93759C59.9791 9.27797 60.1592 9.64965 60.4996 9.7677L64.4218 11.1284C64.7622 11.2465 65.1338 11.0664 65.2519 10.726L66.6128 6.80397C66.7308 6.4636 66.5507 6.09192 66.2104 5.97387Z" fill="#CE194D"/>
<path d="M66.2103 5.97386L62.786 4.78566C62.4457 4.66761 62.0738 4.84784 61.9558 5.18821L60.7677 8.61237C60.6497 8.95274 60.8299 9.32457 61.1703 9.44262L64.5944 10.6307C64.9348 10.7487 65.3066 10.5685 65.4247 10.2281L66.6127 6.80397C66.7308 6.46359 66.5507 6.09191 66.2103 5.97386Z" fill="#F95890"/>
</g>
<path d="M92.1715 27.1992C92.1634 29.4072 108.435 35.9927 98.7062 39.7885C81.2187 46.6114 92.1963 46.4009 97.9613 50.8611C98.6818 51.4186 99.4213 52.0397 100.134 52.7324" stroke="#C1214A" stroke-width="3.54375" stroke-linecap="round" stroke-linejoin="round"/>
<path d="M91.6353 25.5298C83.1846 26.0198 108.527 34.6025 97.0522 39.0797C79.5648 45.9026 91.0149 47.3458 96.7799 51.806C97.2273 52.1521 97.6892 52.514 98.1534 52.8951" stroke="#FB4984" stroke-width="3.54375" stroke-linecap="round" stroke-linejoin="round"/>
</g>
</g>
<defs>
<linearGradient id="paint0_linear_242_5225" x1="85.3491" y1="71.7355" x2="82.7232" y2="68.0044" gradientUnits="userSpaceOnUse">
<stop stop-color="white"/>
<stop offset="0.71" stop-color="white" stop-opacity="0.5"/>
<stop offset="1" stop-color="white" stop-opacity="0"/>
</linearGradient>
<linearGradient id="paint1_linear_242_5225" x1="85.3491" y1="71.7355" x2="82.7232" y2="68.0044" gradientUnits="userSpaceOnUse">
<stop offset="0.19" stop-color="#FCD642"/>
<stop offset="0.88" stop-color="#E7B831"/>
<stop offset="1" stop-color="#D29A20"/>
</linearGradient>
<linearGradient id="paint2_linear_242_5225" x1="55.9275" y1="45.9503" x2="70.5281" y2="60.0748" gradientUnits="userSpaceOnUse">
<stop stop-color="white" stop-opacity="0"/>
<stop offset="0.11" stop-color="white" stop-opacity="0.5"/>
<stop offset="0.49" stop-color="white"/>
<stop offset="0.86" stop-color="white" stop-opacity="0.505"/>
<stop offset="1" stop-color="white" stop-opacity="0.01"/>
</linearGradient>
<linearGradient id="paint3_linear_242_5225" x1="55.9275" y1="45.9503" x2="70.5281" y2="60.0748" gradientUnits="userSpaceOnUse">
<stop stop-color="#FCD642"/>
<stop offset="0.14" stop-color="#FCD642"/>
<stop offset="0.5" stop-color="#FCD642"/>
<stop offset="0.84" stop-color="#FCD642"/>
<stop offset="0.99" stop-color="#FCD642"/>
</linearGradient>
<linearGradient id="paint4_linear_242_5225" x1="39.5213" y1="31.4854" x2="49.0359" y2="38.145" gradientUnits="userSpaceOnUse">
<stop stop-color="white"/>
<stop offset="0.71" stop-color="white" stop-opacity="0.5"/>
<stop offset="1" stop-color="white" stop-opacity="0"/>
</linearGradient>
<linearGradient id="paint5_linear_242_5225" x1="39.5213" y1="31.4854" x2="49.0359" y2="38.145" gradientUnits="userSpaceOnUse">
<stop offset="0.29" stop-color="#9A6C07"/>
<stop offset="0.9" stop-color="#B68314"/>
<stop offset="1" stop-color="#D29A20"/>
</linearGradient>
<linearGradient id="paint6_linear_242_5225" x1="35.2552" y1="57.7627" x2="55.2151" y2="76.6996" gradientUnits="userSpaceOnUse">
<stop offset="0.11" stop-color="#C0951B"/>
<stop offset="0.42" stop-color="#DBAD2A"/>
<stop offset="0.72" stop-color="#F5C539"/>
<stop offset="0.82" stop-color="#FAE24F"/>
<stop offset="1" stop-color="#FFFF64"/>
</linearGradient>
<linearGradient id="paint7_linear_242_5225" x1="52.9275" y1="88.2801" x2="50.8485" y2="85.0414" gradientUnits="userSpaceOnUse">
<stop stop-color="white"/>
<stop offset="0.71" stop-color="white" stop-opacity="0.5"/>
<stop offset="1" stop-color="white" stop-opacity="0"/>
</linearGradient>
<linearGradient id="paint8_linear_242_5225" x1="52.9275" y1="88.2801" x2="50.8485" y2="85.0414" gradientUnits="userSpaceOnUse">
<stop offset="0.29" stop-color="#9A6C07"/>
<stop offset="0.9" stop-color="#CDB636"/>
<stop offset="1" stop-color="#FFFF64"/>
</linearGradient>
<linearGradient id="paint9_linear_242_5225" x1="33.5602" y1="52.1843" x2="57.731" y2="86.8165" gradientUnits="userSpaceOnUse">
<stop offset="0.27" stop-color="#8A48BE"/>
<stop offset="0.63" stop-color="#C579DE"/>
<stop offset="0.88" stop-color="#FFABFD"/>
<stop offset="0.92" stop-color="#B064BC"/>
<stop offset="0.99" stop-color="#611E7B"/>
</linearGradient>
<linearGradient id="paint10_linear_242_5225" x1="23.0598" y1="76.9029" x2="37.387" y2="98.0819" gradientUnits="userSpaceOnUse">
<stop offset="0.27" stop-color="#8A48BE"/>
<stop offset="0.62" stop-color="#C579DE"/>
<stop offset="0.85" stop-color="#FFABFD"/>
<stop offset="0.92" stop-color="#B064BC"/>
<stop offset="0.99" stop-color="#611E7B"/>
</linearGradient>
<linearGradient id="paint11_linear_242_5225" x1="16.1146" y1="94.4033" x2="23.2231" y2="104.59" gradientUnits="userSpaceOnUse">
<stop offset="0.27" stop-color="#8A48BE"/>
<stop offset="0.7" stop-color="#B76BD9"/>
<stop offset="0.88" stop-color="#E38EF4"/>
<stop offset="0.92" stop-color="#A256B7"/>
<stop offset="0.99" stop-color="#611E7B"/>
</linearGradient>
<clipPath id="clip0_242_5225">
<rect width="112" height="112" fill="white" transform="translate(0.5)"/>
</clipPath>
</defs>
</svg>
