<svg width="113" height="112" viewBox="0 0 113 112" fill="none" xmlns="http://www.w3.org/2000/svg">
<mask id="mask0_40_5875" style="mask-type:luminance" maskUnits="userSpaceOnUse" x="0" y="0" width="113" height="112">
<path d="M112.5 0H0.5V112H112.5V0Z" fill="white"/>
</mask>
<g mask="url(#mask0_40_5875)">
<path d="M53.4557 68.1181C53.4557 68.1181 26.1212 72.9687 14.3631 77.1122C13.7345 55.1248 12.5394 33.8675 12.5394 33.8675C12.5394 33.8675 36.171 31.3278 53.4584 24.6641C53.5393 26.978 53.4557 68.1181 53.4557 68.1181Z" fill="url(#paint0_linear_40_5875)"/>
<path d="M53.4557 68.1181C53.4557 68.1181 26.1212 72.9687 14.3631 77.1122C13.7345 55.1248 12.5394 33.8675 12.5394 33.8675C12.5394 33.8675 36.171 31.3278 53.4584 24.6641C53.5393 26.978 53.4557 68.1181 53.4557 68.1181Z" stroke="#76430E" stroke-width="1.75" stroke-linecap="round" stroke-linejoin="round"/>
<path d="M53.2829 62.1848C62.7329 67.5816 83.0322 74.3322 98.3007 81.3869C99.4844 59.8282 100.688 36.1532 100.688 36.1532C100.688 36.1532 81.6029 28.1889 53.5357 24.7788C52.9009 31.4402 51.4775 38.7165 53.2829 62.1848Z" fill="url(#paint1_linear_40_5875)"/>
<path d="M53.2829 62.1848C62.7329 67.5816 83.0322 74.3322 98.3007 81.3869C99.4844 59.8282 100.688 36.1532 100.688 36.1532C100.688 36.1532 81.6029 28.1889 53.5357 24.7788C52.9009 31.4402 51.4775 38.7165 53.2829 62.1848Z" stroke="#7F5313" stroke-width="1.75" stroke-linecap="round" stroke-linejoin="round"/>
<path d="M56.5009 24.5352C54.7586 43.5563 56.5698 67.3098 56.5698 67.3098" stroke="#6B3700" stroke-width="1.75" stroke-linecap="round" stroke-linejoin="round"/>
<path d="M99.4407 81.5563C96.3399 83.043 64.4429 98.465 52.1905 104.289C52.1388 101.008 51.2643 56 51.2643 56C51.2643 56 99.2478 36.7054 100.841 36.0137C100.715 40.8662 100.141 62.5078 99.4407 81.5563Z" fill="url(#paint2_linear_40_5875)"/>
<path d="M99.4407 81.5563C96.3399 83.043 64.4429 98.465 52.1905 104.289C52.1388 101.008 51.2643 56 51.2643 56C51.2643 56 99.2478 36.7054 100.841 36.0137C100.715 40.8662 100.141 62.5078 99.4407 81.5563Z" stroke="#7F5313" stroke-width="1.75" stroke-linecap="round" stroke-linejoin="round"/>
<path d="M52.1633 104.197C48.748 101.927 42.6604 97.6629 36.2084 93.2275C27.7633 87.4221 18.6465 81.0902 13.9092 77.7109C13.8576 74.4297 12.6002 34.3711 12.6002 34.3711C12.6002 34.3711 35.1719 46.9219 51.1851 55.9199C51.1407 63.2188 51.9063 79.0781 52.1633 104.197Z" fill="url(#paint3_linear_40_5875)"/>
<path d="M52.1633 104.197C48.748 101.927 42.6604 97.6629 36.2084 93.2275C27.7633 87.4221 18.6465 81.0902 13.9092 77.7109C13.8576 74.4297 12.6002 34.3711 12.6002 34.3711C12.6002 34.3711 35.1719 46.9219 51.1851 55.9199C51.1407 63.2187 51.9063 79.0781 52.1633 104.197Z" stroke="#BA7A08" stroke-width="1.75" stroke-linecap="round" stroke-linejoin="round"/>
<g opacity="0.6">
<mask id="mask1_40_5875" style="mask-type:luminance" maskUnits="userSpaceOnUse" x="62" y="45" width="17" height="52">
<path d="M68.0551 96.4844C68.0551 96.4844 62.7414 54.8361 62.3551 52.6016C61.9688 50.3671 78.68 43.1483 78.7463 46.1014C78.8125 49.0546 78.7463 91.3993 78.7463 91.3993L68.0551 96.4844Z" fill="url(#paint4_linear_40_5875)"/>
</mask>
<g mask="url(#mask1_40_5875)">
<path d="M68.0551 96.4844C68.0551 96.4844 62.7414 54.8361 62.3551 52.6016C61.9688 50.3671 78.68 43.1483 78.7463 46.1014C78.8125 49.0546 78.7463 91.3993 78.7463 91.3993L68.0551 96.4844Z" fill="url(#paint5_linear_40_5875)"/>
</g>
</g>
<g opacity="0.8">
<mask id="mask2_40_5875" style="mask-type:luminance" maskUnits="userSpaceOnUse" x="31" y="45" width="11" height="50">
<path d="M41.2593 51.6219C41.0784 55.015 38.444 94.6969 38.444 94.6969L31.6822 90.0552C31.6822 90.0552 31.6376 48.3433 31.6822 45.9917C31.7268 43.6402 41.4402 48.2289 41.2593 51.6219Z" fill="url(#paint6_linear_40_5875)"/>
</mask>
<g mask="url(#mask2_40_5875)">
<path d="M41.2593 51.6219C41.0784 55.015 38.444 94.6969 38.444 94.6969L31.6822 90.0552C31.6822 90.0552 31.6376 48.3433 31.6822 45.9917C31.7268 43.6402 41.4402 48.2289 41.2593 51.6219Z" fill="url(#paint7_linear_40_5875)"/>
</g>
</g>
<path d="M100.777 36.7217C100.77 38.3903 100.098 59.5091 100.098 59.5091" stroke="#5B2F0A" stroke-width="1.75" stroke-linecap="round" stroke-linejoin="round"/>
<g opacity="0.6">
<path d="M52.0669 99.1096C52.0669 99.1096 51.5782 79.4882 51.2424 57.7783" stroke="#FCCF18" stroke-width="1.75" stroke-linecap="round" stroke-linejoin="round"/>
</g>
<g opacity="0.8">
<path d="M102.104 38.124C102.104 38.124 77.56 44.5924 47.6943 52.7939" stroke="#FCCF18" stroke-width="1.85893" stroke-linecap="round" stroke-linejoin="round"/>
</g>
<path d="M47.584 52.8031C35.2933 45.7161 10.8146 33.1284 10.8146 33.1284" stroke="#FEFF20" stroke-width="1.85893" stroke-linecap="round" stroke-linejoin="round"/>
<path d="M50.8936 67.4739C50.8671 63.6288 51.0137 52.0525 50.8831 50.5499C51.4312 50.304 59.0774 47.2046 68.4003 43.4329C81.9401 37.9552 99.0166 31.0593 103.023 29.4268C103.039 35.3824 103.079 40.1936 103.023 45.6501C101.154 46.4379 88.7255 51.6456 76.4604 56.7812C64.2443 61.8963 52.1903 66.9402 50.8936 67.4739Z" fill="url(#paint8_linear_40_5875)"/>
<path d="M50.8936 67.4739C50.8671 63.6288 51.0137 52.0525 50.8831 50.5499C51.4312 50.304 59.0774 47.2046 68.4003 43.4329C81.9401 37.9552 99.0166 31.0593 103.023 29.4268C103.039 35.3824 103.079 40.1936 103.023 45.6501C101.154 46.4379 88.7255 51.6456 76.4604 56.7812C64.2443 61.8963 52.1903 66.9402 50.8936 67.4739Z" stroke="#7F5313" stroke-width="1.75" stroke-linecap="round" stroke-linejoin="round"/>
<path d="M50.8937 67.474C49.5768 66.6704 39.2195 60.3045 29.1988 54.1489C20.0837 48.5495 11.2473 43.1245 9.7475 42.2185C9.66284 40.3403 9.29097 27.5148 9.26428 26.0918C9.26428 26.0918 20.8513 32.8997 31.8003 39.3332C41.3514 44.9452 50.4175 50.2722 50.8837 50.5472C50.974 55.0497 50.9357 64.0528 50.8937 67.474Z" fill="url(#paint9_linear_40_5875)"/>
<path d="M50.8937 67.474C49.5768 66.6704 39.2195 60.3045 29.1988 54.1489C20.0837 48.5495 11.2473 43.1245 9.7475 42.2185C9.66284 40.3403 9.29097 27.5148 9.26428 26.0918C9.26428 26.0918 20.8513 32.8997 31.8003 39.3332C41.3514 44.9452 50.4175 50.2722 50.8837 50.5472C50.974 55.0497 50.9357 64.0528 50.8937 67.474Z" stroke="#BA7A08" stroke-width="1.75" stroke-linecap="round" stroke-linejoin="round"/>
<g opacity="0.6">
<path d="M9.41631 31.0321C9.41631 31.0321 26.9141 41.9455 50.8799 56.4305C51.0313 56.3283 50.4779 50.3057 50.2274 50.1587C43.5938 46.2656 9.26428 26.0923 9.26428 26.0923L9.41631 31.0321Z" fill="url(#paint10_radial_40_5875)"/>
</g>
<g opacity="0.8">
<path d="M50.8525 50.75C50.8672 59.9922 50.8937 64.1388 50.8937 64.1388" stroke="#FCCF18" stroke-width="1.75" stroke-linecap="round" stroke-linejoin="round"/>
</g>
<path d="M50.8937 67.474C49.5768 66.6704 39.2195 60.3045 29.1988 54.1489C20.0837 48.5495 11.2473 43.1245 9.7475 42.2185C9.66284 40.3403 9.29097 27.5148 9.26428 26.0918C9.26428 26.0918 20.8513 32.8997 31.8003 39.3332C41.3514 44.9452 50.4175 50.2722 50.8837 50.5472C50.974 55.0497 50.9357 64.0528 50.8937 67.474Z" fill="url(#paint11_linear_40_5875)"/>
<path d="M50.8937 67.474C49.5768 66.6704 39.2195 60.3045 29.1988 54.1489C20.0837 48.5495 11.2473 43.1245 9.7475 42.2185C9.66284 40.3403 9.29097 27.5148 9.26428 26.0918C9.26428 26.0918 20.8513 32.8997 31.8003 39.3332C41.3514 44.9452 50.4175 50.2722 50.8837 50.5472C50.974 55.0497 50.9357 64.0528 50.8937 67.474Z" stroke="#BA7A08" stroke-width="1.75" stroke-linecap="round" stroke-linejoin="round"/>
<g opacity="0.6">
<path d="M9.41631 31.0321C9.41631 31.0321 26.9141 41.9455 50.8799 56.4305C51.0313 56.3283 50.4779 50.3057 50.2274 50.1587C43.5938 46.2656 9.26428 26.0923 9.26428 26.0923L9.41631 31.0321Z" fill="url(#paint12_radial_40_5875)"/>
</g>
<g opacity="0.8">
<path d="M50.8525 50.75C50.8672 59.9922 50.8937 64.1388 50.8937 64.1388" stroke="#FCCF18" stroke-width="1.75" stroke-linecap="round" stroke-linejoin="round"/>
</g>
<path d="M9.26562 26.0842C11.3444 25.3496 24.7192 20.5516 37.3183 16.0269C47.4996 12.3705 57.1745 8.89285 59.9732 7.88135C63.0703 9.42332 73.2498 14.5254 82.9535 19.3898C92.4827 24.1666 101.553 28.7142 103.005 29.435C100.31 30.5769 69.7345 42.8748 50.8937 50.5503C50.6608 50.6452 11.3794 27.3059 9.26562 26.0842Z" fill="url(#paint13_linear_40_5875)"/>
<path d="M9.26562 26.0842C11.3444 25.3496 24.7192 20.5516 37.3183 16.0269C47.4996 12.3705 57.1745 8.89285 59.9732 7.88135C63.0702 9.42332 73.2498 14.5254 82.9535 19.3898C92.4827 24.1666 101.553 28.7142 103.005 29.435C100.31 30.5769 69.7345 42.8748 50.8938 50.5503C50.6608 50.6452 11.3794 27.3059 9.26562 26.0842Z" stroke="#7F5313" stroke-width="1.75" stroke-linecap="round" stroke-linejoin="round"/>
<g opacity="0.3">
<path d="M57.2719 44.1845C57.2719 46.2829 54.5502 47.9841 51.1928 47.9841C47.8355 47.9841 45.1138 46.2829 45.1138 44.1845C45.1138 42.086 47.8355 40.3848 51.1928 40.3848C54.5502 40.3848 57.2719 42.086 57.2719 44.1845Z" fill="url(#paint14_radial_40_5875)"/>
</g>
<g opacity="0.3">
<path d="M61.7195 42.7435C61.7195 45.5196 58.1189 47.7701 53.6774 47.7701C49.2359 47.7701 45.6353 45.5196 45.6353 42.7435C45.6353 39.9673 49.2359 37.7168 53.6774 37.7168C58.1189 37.7168 61.7195 39.9673 61.7195 42.7435Z" fill="url(#paint15_radial_40_5875)"/>
</g>
<g opacity="0.8">
<path d="M98.9625 31.0723C98.9625 31.0723 60.3144 46.7028 50.9132 50.5498" stroke="#FCCF18" stroke-width="1.75" stroke-linecap="round" stroke-linejoin="round"/>
</g>
<path d="M50.8798 50.5466C39.0546 43.8592 13.3359 28.4839 13.3359 28.4839" stroke="#FEFF20" stroke-width="1.75" stroke-linecap="round" stroke-linejoin="round"/>
<mask id="mask3_40_5875" style="mask-type:luminance" maskUnits="userSpaceOnUse" x="37" y="22" width="52" height="21">
<path d="M68.4349 34.2444C68.4349 34.2444 89.2026 22.5076 88.9007 22.543C78.7509 23.7328 60.3902 31.8592 46.272 38.4072C43.0107 39.9199 39.9755 41.3485 37.3206 42.5878C37.4142 42.656 68.4349 34.2444 68.4349 34.2444Z" fill="url(#paint16_radial_40_5875)"/>
</mask>
<g mask="url(#mask3_40_5875)">
<path d="M68.4349 34.2444C68.4349 34.2444 89.2026 22.5076 88.9007 22.543C78.7509 23.7328 60.3902 31.8592 46.272 38.4072C43.0107 39.9199 39.9755 41.3485 37.3206 42.5878C37.4142 42.656 68.4349 34.2444 68.4349 34.2444Z" fill="url(#paint17_radial_40_5875)"/>
</g>
<path d="M62.6892 22.4008C55.1329 18.5389 50.2892 16.0603 43.6055 12.7363C39.2736 14.2401 33.422 16.3862 26.2201 19.0065C33.5246 23.2003 41.7209 27.9452 46.3825 30.5873C46.8753 22.5311 53.9572 21.4852 62.6892 22.4008Z" fill="#D31A1D"/>
<path d="M62.6892 22.4008C55.1329 18.5389 50.2892 16.0603 43.6055 12.7363C39.2736 14.2401 33.422 16.3862 26.2201 19.0065C33.5246 23.2003 41.7209 27.9452 46.3825 30.5873C46.8753 22.5311 53.9572 21.4852 62.6892 22.4008Z" stroke="#6D1805" stroke-width="1.75544" stroke-linecap="round" stroke-linejoin="round"/>
<path d="M84.5325 89.7921C84.6629 87.3264 85.5208 72.6145 86.8642 37.0231C86.8985 36.1152 86.2952 35.1493 85.5055 34.706C71.1669 26.6556 58.4689 20.1282 43.6055 12.7363C39.2736 14.2401 33.422 16.3862 26.2201 19.0065C45.6173 30.1433 61.8847 39.5267 67.1642 42.3871C68.1711 42.9327 68.7928 44.0527 68.7958 45.195C68.8549 66.9633 68.8186 92.6003 68.8063 97.5885C74.7386 94.65 79.1954 92.49 84.5325 89.7921Z" fill="url(#paint18_linear_40_5875)"/>
<path d="M84.5325 89.7921C84.6629 87.3264 85.5208 72.6145 86.8642 37.0231C86.8985 36.1152 86.2952 35.1493 85.5055 34.706C71.1669 26.6556 58.4689 20.1282 43.6055 12.7363C39.2736 14.2401 33.422 16.3862 26.2201 19.0065C45.6173 30.1433 61.8847 39.5267 67.1642 42.3871C68.1711 42.9327 68.7928 44.0527 68.7958 45.195C68.8549 66.9633 68.8186 92.6003 68.8063 97.5885C74.7386 94.65 79.1954 92.49 84.5325 89.7921Z" stroke="#6D1805" stroke-width="1.75544" stroke-linecap="round" stroke-linejoin="round"/>
<path d="M83.8761 37.5132L71.6877 42.5679" stroke="#D8414C" stroke-width="1.75544" stroke-linecap="round" stroke-linejoin="round"/>
<path d="M61.8558 39.3501L66.9479 42.2545C68.0959 42.9093 68.8055 44.1347 68.8055 45.4626" stroke="#A52619" stroke-width="1.75544" stroke-linecap="round" stroke-linejoin="round"/>
<path d="M86.8745 37.4552C86.9292 36.2523 86.2854 35.1267 85.2242 34.57L84.4006 34.1377" stroke="#A52619" stroke-width="1.75544" stroke-linecap="round" stroke-linejoin="round"/>
<path d="M53.2982 22.1417C68.0813 16.6554 72.1407 15.2574 74.1582 14.7267C75.759 14.3056 87.3906 20.7799 88.6524 21.7267C88.6524 21.7267 80.596 24.8894 70.889 28.7015C75.6407 17.8824 72.4465 19.4138 53.2982 22.1417Z" fill="url(#paint19_linear_40_5875)"/>
<path d="M53.2982 22.1417C68.0813 16.6554 72.1407 15.2574 74.1582 14.7267C75.759 14.3056 87.3906 20.7799 88.6524 21.7267C88.6524 21.7267 80.596 24.8894 70.889 28.7015C75.6407 17.8824 72.4465 19.4138 53.2982 22.1417Z" stroke="#7D1E02" stroke-width="1.75" stroke-linecap="round" stroke-linejoin="round"/>
<path d="M25.7348 86.8679C25.6016 85.0116 21.6503 37.7504 21.5289 36.3666C21.4336 35.281 22.1023 34.2146 23.1256 33.8138C29.211 31.4314 58.3424 20.7083 57.9797 21.2178C52.1631 29.3885 52.7286 31.2717 69.6961 29.1772C69.6961 29.1772 42.7052 39.7713 38.0478 41.5843C36.7086 42.1058 35.7693 43.5454 35.8041 44.9937C35.8575 47.2099 37.3879 90.1249 37.5887 95.4081C31.9178 91.3554 25.7348 86.8679 25.7348 86.8679Z" fill="url(#paint20_linear_40_5875)"/>
<path d="M25.7348 86.8679C25.6016 85.0116 21.6503 37.7504 21.5289 36.3666C21.4336 35.281 22.1023 34.2146 23.1256 33.8138C29.211 31.4314 58.3424 20.7083 57.9797 21.2178C52.1631 29.3885 52.7286 31.2717 69.6961 29.1772C69.6961 29.1772 42.7052 39.7713 38.0478 41.5843C36.7086 42.1058 35.7693 43.5454 35.8041 44.9937C35.8575 47.2099 37.3879 90.1249 37.5887 95.4081C31.9178 91.3554 25.7348 86.8679 25.7348 86.8679Z" stroke="#7D1E02" stroke-width="1.75" stroke-linecap="round" stroke-linejoin="round"/>
<path d="M24.386 35.5449C25.4924 36.285 34.1145 41.4013 34.1145 41.4013" stroke="#FE7A78" stroke-width="1.75" stroke-linecap="round" stroke-linejoin="round"/>
<path d="M23.3916 58.7267C23.3538 58.1783 21.5824 36.907 21.5364 36.4835C21.4087 35.3049 22.1259 34.191 23.2339 33.7691C32.7113 30.1597 46.2733 24.829 47.4218 24.4575" stroke="#AF2F1B" stroke-width="1.75" stroke-linecap="round" stroke-linejoin="round"/>
<path d="M53.9138 35.3491C53.0429 35.7291 43.9493 39.265 38.2355 41.4991C36.6702 42.1111 35.7873 43.1751 35.8472 45.1353C35.8667 45.7726 36.489 64.2491 36.5085 65.1225" stroke="#AF2F1B" stroke-width="1.75" stroke-linecap="round" stroke-linejoin="round"/>
<path d="M32.8267 31.9981C32.4252 33.4042 32.4983 37.2969 33.4759 38.3208C34.7729 39.6797 49.0336 34.0725 50.2759 34.2444C50.2759 34.2444 54.8314 34.9908 58.6405 33.5591C63.8279 31.6091 68.6671 30.1295 69.0186 29.4267C69.4038 28.656 65.0811 24.1808 58.1209 23.1899C55.2385 22.7795 33.1476 30.8735 32.8267 31.9981Z" fill="url(#paint21_linear_40_5875)"/>
<path d="M72.5465 21.2958C76.5166 20.8526 87.763 21.3306 89.075 22.7566C91.0405 24.8929 90.7938 30.0987 79.8495 37.2308C76.1609 39.6345 65.6104 33.5324 61.7904 29.5282C57.9703 25.524 67.8788 21.8166 72.5465 21.2958Z" fill="url(#paint22_linear_40_5875)"/>
<path d="M51.0941 29.0362C47.4992 31.1218 43.2123 33.1122 40.1722 33.9758C37.7574 34.6618 30.4855 36.3357 28.9212 33.2622C26.3981 28.3045 28.8389 17.0717 31.8164 14.8625C31.9957 14.7295 37.2908 22.5875 50.9843 18.4986" fill="url(#paint23_linear_40_5875)"/>
<path d="M51.0941 29.0362C47.4992 31.1218 43.2123 33.1122 40.1722 33.9758C37.7574 34.6618 30.4855 36.3357 28.9212 33.2622C26.3981 28.3045 28.8389 17.0717 31.8164 14.8625C31.9957 14.7295 37.2908 22.5874 50.9843 18.4986" stroke="#280804" stroke-width="1.75" stroke-linecap="round" stroke-linejoin="round"/>
<path d="M29.1205 33.4614C30.1132 35.6288 35.254 35.465 40.1492 33.9998" stroke="#5E1808" stroke-width="1.75" stroke-linecap="round" stroke-linejoin="round"/>
<path d="M75.1988 28.5544C69.6257 29.6851 62.254 30.3053 59.8344 27.913C54.9259 23.06 45.9454 28.4371 37.2019 30.2525C31.7332 31.3881 28.4454 31.1717 29.3018 33.8243C27.7891 31.8827 27.4789 28.0782 27.834 21.146C28.2813 12.4137 31.1854 8.77152 32.4715 8.29223C35.5 7.1637 38.4105 8.72098 41.8755 10.6175C44.8114 12.2249 49.6641 17.6092 52.6118 19.8145C58.0995 23.9202 66.9454 21.0543 77.5733 13.3563C78.8125 18.2653 79.1472 27.7533 75.1988 28.5544Z" fill="url(#paint24_linear_40_5875)"/>
<path d="M75.1988 28.5544C69.6257 29.6851 62.254 30.3053 59.8344 27.913C54.9259 23.06 45.9454 28.4371 37.2019 30.2525C31.7332 31.3881 28.4454 31.1717 29.3018 33.8243C27.7891 31.8827 27.4789 28.0782 27.834 21.146C28.2813 12.4137 31.1854 8.77152 32.4715 8.29223C35.5 7.1637 38.4105 8.72098 41.8755 10.6175C44.8114 12.2249 49.6641 17.6092 52.6118 19.8145C58.0995 23.9202 66.9454 21.0543 77.5733 13.3563C78.8125 18.2653 79.1472 27.7533 75.1988 28.5544Z" stroke="#7D1E02" stroke-width="1.75" stroke-linecap="round" stroke-linejoin="round"/>
<path d="M50.2121 26.3962C50.2121 26.3962 42.2264 29.2689 38.323 30.034C31.1251 31.4452 29.2407 30.9121 29.0283 33.5647C28.9922 34.0155 27.0235 30.3514 27.834 20.1619C28.3841 13.2443 30.6558 9.72311 31.7058 8.83936C31.7058 8.83936 30.5115 16.9637 30.7586 22.1459C31.0058 27.3259 33.6002 27.945 38.0474 27.5731C42.4946 27.2034 49.4115 25.4862 49.4115 25.4862L50.2121 26.3962Z" fill="url(#paint25_linear_40_5875)"/>
<path d="M29.0284 33.5647C27.7312 31.7119 27.2784 27.0809 27.834 20.1619C28.3918 13.245 30.6559 9.72311 31.7059 8.83936" stroke="#AF2F1B" stroke-width="1.75" stroke-linecap="round" stroke-linejoin="round"/>
<g opacity="0.6">
<path d="M48.4558 24.4733C46.3663 24.6822 41.7441 23.5674 38.9852 18.791C38.9852 18.791 40.5911 19.6969 43.3499 20.1085C46.1088 20.5202 49.2794 20.6027 49.5677 21.7557C49.856 22.9088 49.6911 24.3497 48.4558 24.4733Z" fill="url(#paint26_linear_40_5875)"/>
</g>
<path d="M29.3119 32.6409C29.5665 31.4855 31.0658 31.2751 35.9656 30.3902C40.1956 29.6263 46.547 26.6052 50.1246 26.1631" stroke="#CE3A45" stroke-width="1.75" stroke-linecap="round" stroke-linejoin="round"/>
<path d="M57.0084 27.3268C58.7379 31.4032 62.3339 35.4427 68.0026 36.5102C71.1731 37.1071 74.776 36.5504 75.8465 35.2869C76.7911 34.1722 76.7112 32.2063 69.979 29.3651C63.2467 26.524 57.0084 27.3268 57.0084 27.3268Z" fill="url(#paint27_linear_40_5875)"/>
<path d="M58.4725 28.1748C61.5311 36.6947 69.1876 37.515 75.651 35.4673" stroke="#5E1808" stroke-width="1.75" stroke-linecap="round" stroke-linejoin="round"/>
<path d="M79.6142 23.9919C78.6141 31.0188 76.8339 34.1681 75.8473 35.286C75.8473 35.286 76.4029 32.9475 70.0395 31.8975C66.5876 31.3266 60.9154 30.0075 57.5467 27.7128C57.3607 27.5881 57.3782 18.7419 57.3782 18.7419C60.1955 18.235 62.0094 16.788 63.7528 15.136C65.8323 13.1657 67.8117 10.9045 71.2754 9.60033C73.8895 8.61595 76.7052 8.80517 78.6561 10.1997C80.0703 11.2105 80.3437 18.8668 79.6142 23.9919Z" fill="url(#paint28_linear_40_5875)"/>
<path d="M79.6142 23.9919C78.6141 31.0188 76.8339 34.1681 75.8473 35.286C75.8473 35.286 76.4029 32.9475 70.0395 31.8975C66.5876 31.3266 60.9154 30.0075 57.5467 27.7128C57.3607 27.5881 57.3782 18.7419 57.3782 18.7419C60.1955 18.235 62.0094 16.788 63.7528 15.136C65.8323 13.1657 67.8117 10.9045 71.2754 9.60033C73.8895 8.61595 76.7052 8.80517 78.6561 10.1997C80.0703 11.2105 80.3437 18.8668 79.6142 23.9919Z" stroke="#68140B" stroke-width="1.75" stroke-linecap="round" stroke-linejoin="round"/>
<path d="M60.2223 23.7444C67.2612 23.6827 68.0642 20.7799 73.8701 22.1458C76.7491 22.823 73.6846 31.4855 72.3876 32.3502C71.0906 33.215 57.0082 27.3269 57.0082 27.3269L60.2223 23.7444Z" fill="url(#paint29_linear_40_5875)"/>
<g opacity="0.6">
<path d="M78.8486 23.6091C77.5515 30.5872 76.9532 31.7731 76.0661 33.7C76.0661 33.7 76.2936 32.346 69.9302 31.296C66.4783 30.725 60.3772 29.6214 57.0084 27.3267C57.0084 27.3267 64.2239 29.8404 71.276 28.2737C74.6311 27.5284 76.4643 28.3975 77.534 21.6447C78.6058 14.8897 77.2343 10.4731 77.2343 10.4731C77.7702 10.7378 78.3324 11.0485 78.5511 11.3547C79.1702 12.2188 79.8505 18.2147 78.8486 23.6091Z" fill="url(#paint30_linear_40_5875)"/>
</g>
<path d="M73.6317 32.8698C71.6485 31.6089 61.9141 30.9253 57.0084 27.3267" stroke="#AF2F1B" stroke-width="1.75" stroke-linecap="round" stroke-linejoin="round"/>
<path d="M57.3788 18.7412C60.4179 18.1941 62.2891 16.5528 64.1644 14.7409C66.1006 12.8702 68.0413 10.8179 71.276 9.6001" stroke="#AF2F1B" stroke-width="1.75" stroke-linecap="round" stroke-linejoin="round"/>
<path d="M59.2946 26.2759C58.1812 28.1309 58.923 30.57 57.6717 31.6375C56.6086 32.5409 50.5228 32.7619 49.0418 31.2481C48.4075 30.6006 47.6224 28.0281 47.3336 25.4862C47.2264 24.5369 47.1868 23.5941 47.2503 22.7562C47.5281 19.0812 49.2693 17.6484 50.7087 17.1366C52.9618 16.3337 57.595 16.395 59.2946 17.9394C60.6531 19.1731 60.4059 24.4231 59.2946 26.2759Z" fill="url(#paint31_linear_40_5875)"/>
<path d="M59.2946 26.276C58.1812 28.131 58.9227 30.5701 57.6715 31.6376C56.6084 32.541 50.5227 32.762 49.0418 31.2482C48.4074 30.6007 47.6221 28.0282 47.3334 25.4863C47.3334 25.4863 49.7615 26.5245 53.314 26.833C56.8643 27.1414 59.2946 26.276 59.2946 26.276Z" fill="url(#paint32_linear_40_5875)"/>
<path d="M49.8466 17.5493C49.8466 17.5493 48.3178 23.335 50.0288 24.8973C51.923 26.6268 55.526 26.0607 56.051 26.3387C56.576 26.6167 54.723 29.2107 51.6038 29.149C48.4847 29.0873 48.0524 26.6165 48.0833 23.2812C48.1141 19.9459 49.8466 17.5493 49.8466 17.5493Z" fill="url(#paint33_linear_40_5875)"/>
<path d="M59.2946 26.2759C58.1812 28.1309 58.923 30.57 57.6717 31.6375C56.6086 32.5409 50.5228 32.7619 49.0418 31.2481C48.4075 30.6006 47.6224 28.0281 47.3336 25.4862C47.2264 24.5369 47.1868 23.5941 47.2503 22.7562C47.5281 19.0812 49.2693 17.6484 50.7087 17.1366C52.9618 16.3337 57.595 16.395 59.2946 17.9394C60.6531 19.1731 60.4059 24.4231 59.2946 26.2759Z" stroke="#7D1E02" stroke-width="1.75" stroke-linecap="round" stroke-linejoin="round"/>
<path d="M59.2936 26.2769C60.4053 24.4238 60.6524 19.1738 59.2936 17.9386C57.595 16.3944 52.9627 16.3325 50.7083 17.1355C49.2689 17.6483 47.5277 19.0813 47.2496 22.7563" stroke="#AF2F1B" stroke-width="1.75" stroke-linecap="round" stroke-linejoin="round"/>
</g>
<defs>
<linearGradient id="paint0_linear_40_5875" x1="39.8158" y1="51.0221" x2="41.8346" y2="32.6045" gradientUnits="userSpaceOnUse">
<stop stop-color="#8B5100"/>
<stop offset="0.38" stop-color="#9F5A00"/>
<stop offset="1" stop-color="#B46300"/>
</linearGradient>
<linearGradient id="paint1_linear_40_5875" x1="75.7345" y1="70.3171" x2="79.7208" y2="38.2435" gradientUnits="userSpaceOnUse">
<stop stop-color="#7D4800"/>
<stop offset="0.5" stop-color="#9D5F00"/>
<stop offset="1" stop-color="#BD7600"/>
</linearGradient>
<linearGradient id="paint2_linear_40_5875" x1="75.948" y1="90.9582" x2="75.948" y2="44.8737" gradientUnits="userSpaceOnUse">
<stop stop-color="#B8700D"/>
<stop offset="0.32" stop-color="#C0830F"/>
<stop offset="1" stop-color="#C89510"/>
</linearGradient>
<linearGradient id="paint3_linear_40_5875" x1="15.7515" y1="78.6979" x2="49.3128" y2="59.5998" gradientUnits="userSpaceOnUse">
<stop stop-color="#DB9818"/>
<stop offset="0.38" stop-color="#DFA019"/>
<stop offset="1" stop-color="#E4A91A"/>
</linearGradient>
<linearGradient id="paint4_linear_40_5875" x1="73.323" y1="36.2706" x2="74.2057" y2="95.7498" gradientUnits="userSpaceOnUse">
<stop stop-color="white" stop-opacity="0"/>
<stop offset="0.25" stop-color="white" stop-opacity="0.5"/>
<stop offset="0.5" stop-color="white"/>
<stop offset="0.69" stop-color="white" stop-opacity="0.5"/>
<stop offset="1" stop-color="white" stop-opacity="0"/>
</linearGradient>
<linearGradient id="paint5_linear_40_5875" x1="73.323" y1="36.2706" x2="74.2057" y2="95.7498" gradientUnits="userSpaceOnUse">
<stop stop-color="#6C2304"/>
<stop offset="0.19" stop-color="#6C2304"/>
<stop offset="0.5" stop-color="#6C2304"/>
<stop offset="0.75" stop-color="#6C2304"/>
<stop offset="1" stop-color="#6C2304"/>
</linearGradient>
<linearGradient id="paint6_linear_40_5875" x1="32.7759" y1="24.6616" x2="36.6828" y2="95.4021" gradientUnits="userSpaceOnUse">
<stop stop-color="white" stop-opacity="0"/>
<stop offset="0.25" stop-color="white" stop-opacity="0.5"/>
<stop offset="0.5" stop-color="white"/>
<stop offset="0.69" stop-color="white" stop-opacity="0.5"/>
<stop offset="1" stop-color="white" stop-opacity="0"/>
</linearGradient>
<linearGradient id="paint7_linear_40_5875" x1="32.7759" y1="24.6616" x2="36.6828" y2="95.4021" gradientUnits="userSpaceOnUse">
<stop stop-color="#6C2304"/>
<stop offset="0.19" stop-color="#6C2304"/>
<stop offset="0.5" stop-color="#6C2304"/>
<stop offset="0.75" stop-color="#6C2304"/>
<stop offset="1" stop-color="#6C2304"/>
</linearGradient>
<linearGradient id="paint8_linear_40_5875" x1="51.0106" y1="65.8018" x2="100.669" y2="32.2018" gradientUnits="userSpaceOnUse">
<stop stop-color="#B8700D"/>
<stop offset="0.5" stop-color="#C0830F"/>
<stop offset="1" stop-color="#C89510"/>
</linearGradient>
<linearGradient id="paint9_linear_40_5875" x1="9.66678" y1="43.2707" x2="49.4432" y2="50.1884" gradientUnits="userSpaceOnUse">
<stop stop-color="#DB9818"/>
<stop offset="0.5" stop-color="#DFA019"/>
<stop offset="1" stop-color="#E4A91A"/>
</linearGradient>
<radialGradient id="paint10_radial_40_5875" cx="0" cy="0" r="1" gradientUnits="userSpaceOnUse" gradientTransform="translate(29.7918 41.5207) scale(24.0249 24.0249)">
<stop stop-color="#FEFF20"/>
<stop offset="0.63" stop-color="#FEFF20" stop-opacity="0.5"/>
<stop offset="1" stop-color="#FEFF20" stop-opacity="0"/>
</radialGradient>
<linearGradient id="paint11_linear_40_5875" x1="9.66678" y1="43.2707" x2="49.4432" y2="50.1884" gradientUnits="userSpaceOnUse">
<stop stop-color="#DB9818"/>
<stop offset="0.5" stop-color="#DFA019"/>
<stop offset="1" stop-color="#E4A91A"/>
</linearGradient>
<radialGradient id="paint12_radial_40_5875" cx="0" cy="0" r="1" gradientUnits="userSpaceOnUse" gradientTransform="translate(29.7918 41.5207) scale(24.0249 24.0249)">
<stop stop-color="#FEFF20"/>
<stop offset="0.63" stop-color="#FEFF20" stop-opacity="0.5"/>
<stop offset="1" stop-color="#FEFF20" stop-opacity="0"/>
</radialGradient>
<linearGradient id="paint13_linear_40_5875" x1="49.0418" y1="11.7705" x2="63.3713" y2="44.3822" gradientUnits="userSpaceOnUse">
<stop stop-color="#C89510"/>
<stop offset="0.61" stop-color="#D29314"/>
<stop offset="1" stop-color="#DB9118"/>
</linearGradient>
<radialGradient id="paint14_radial_40_5875" cx="0" cy="0" r="1" gradientUnits="userSpaceOnUse" gradientTransform="translate(51.1305 44.188) scale(5.27138)">
<stop stop-color="#F7F85A"/>
<stop offset="0.71" stop-color="#F7F85A" stop-opacity="0.5"/>
<stop offset="1" stop-color="#F7F85A" stop-opacity="0"/>
</radialGradient>
<radialGradient id="paint15_radial_40_5875" cx="0" cy="0" r="1" gradientUnits="userSpaceOnUse" gradientTransform="translate(53.318 41.7072) scale(8.10097)">
<stop stop-color="#F7310B"/>
<stop offset="0.67" stop-color="#F7310B" stop-opacity="0.5"/>
<stop offset="1" stop-color="#F7310B" stop-opacity="0"/>
</radialGradient>
<radialGradient id="paint16_radial_40_5875" cx="0" cy="0" r="1" gradientUnits="userSpaceOnUse" gradientTransform="translate(64.5731 32.5517) scale(25.3199)">
<stop stop-color="white"/>
<stop offset="0.74" stop-color="white" stop-opacity="0.5"/>
<stop offset="1" stop-color="white" stop-opacity="0"/>
</radialGradient>
<radialGradient id="paint17_radial_40_5875" cx="0" cy="0" r="1" gradientUnits="userSpaceOnUse" gradientTransform="translate(64.5731 32.5517) scale(25.3199)">
<stop stop-color="#652F06"/>
<stop offset="0.5" stop-color="#652F06"/>
<stop offset="1" stop-color="#652F06"/>
</radialGradient>
<linearGradient id="paint18_linear_40_5875" x1="66.5418" y1="56.1846" x2="62.2955" y2="44.5172" gradientUnits="userSpaceOnUse">
<stop stop-color="#A21512"/>
<stop offset="0.64" stop-color="#BA1717"/>
<stop offset="1" stop-color="#D31A1D"/>
</linearGradient>
<linearGradient id="paint19_linear_40_5875" x1="58.2293" y1="22.9265" x2="22.4676" y2="86.6677" gradientUnits="userSpaceOnUse">
<stop stop-color="#D62625"/>
<stop offset="0.25" stop-color="#E53D3D"/>
<stop offset="0.4" stop-color="#F55455"/>
<stop offset="0.52" stop-color="#E53D3D"/>
<stop offset="1" stop-color="#D62625"/>
</linearGradient>
<linearGradient id="paint20_linear_40_5875" x1="58.2293" y1="22.9266" x2="22.4676" y2="86.6678" gradientUnits="userSpaceOnUse">
<stop stop-color="#D62625"/>
<stop offset="0.25" stop-color="#E53D3D"/>
<stop offset="0.4" stop-color="#F55455"/>
<stop offset="0.52" stop-color="#E53D3D"/>
<stop offset="1" stop-color="#D62625"/>
</linearGradient>
<linearGradient id="paint21_linear_40_5875" x1="51.448" y1="30.3642" x2="36.3774" y2="42.5934" gradientUnits="userSpaceOnUse">
<stop stop-color="#491212"/>
<stop offset="0.56" stop-color="#491212" stop-opacity="0.5"/>
<stop offset="1" stop-color="#491212" stop-opacity="0"/>
</linearGradient>
<linearGradient id="paint22_linear_40_5875" x1="65.3943" y1="24.3565" x2="87.989" y2="32.3322" gradientUnits="userSpaceOnUse">
<stop stop-color="#491212"/>
<stop offset="0.78" stop-color="#491212" stop-opacity="0.6"/>
<stop offset="1" stop-color="#491212" stop-opacity="0.2"/>
</linearGradient>
<linearGradient id="paint23_linear_40_5875" x1="47.1503" y1="30.0578" x2="29.8979" y2="34.6889" gradientUnits="userSpaceOnUse">
<stop stop-color="#390A07"/>
<stop offset="0.43" stop-color="#5D1A17"/>
<stop offset="1" stop-color="#812927"/>
</linearGradient>
<linearGradient id="paint24_linear_40_5875" x1="42.534" y1="23.2" x2="32.6909" y2="20.7702" gradientUnits="userSpaceOnUse">
<stop stop-color="#D62625"/>
<stop offset="0.6" stop-color="#E53D3D"/>
<stop offset="1" stop-color="#F55455"/>
</linearGradient>
<linearGradient id="paint25_linear_40_5875" x1="28.4793" y1="14.1769" x2="40.0087" y2="29.7416" gradientUnits="userSpaceOnUse">
<stop stop-color="#F97F73"/>
<stop offset="0.56" stop-color="#F97F73" stop-opacity="0.5"/>
<stop offset="1" stop-color="#F97F73" stop-opacity="0"/>
</linearGradient>
<linearGradient id="paint26_linear_40_5875" x1="47.0731" y1="22.9267" x2="40.6497" y2="18.2328" gradientUnits="userSpaceOnUse">
<stop stop-color="#F97F73"/>
<stop offset="0.26" stop-color="#F97F73" stop-opacity="0.5"/>
<stop offset="1" stop-color="#F97F73" stop-opacity="0"/>
</linearGradient>
<linearGradient id="paint27_linear_40_5875" x1="66.1043" y1="31.8954" x2="64.5647" y2="35.918" gradientUnits="userSpaceOnUse">
<stop stop-color="#390A07"/>
<stop offset="0.58" stop-color="#781E19"/>
<stop offset="1" stop-color="#B7322B"/>
</linearGradient>
<linearGradient id="paint28_linear_40_5875" x1="76.0573" y1="24.0203" x2="67.1953" y2="18.4011" gradientUnits="userSpaceOnUse">
<stop stop-color="#D62625"/>
<stop offset="0.4" stop-color="#E53D3D"/>
<stop offset="1" stop-color="#F55455"/>
</linearGradient>
<linearGradient id="paint29_linear_40_5875" x1="58.448" y1="26.8642" x2="74.5101" y2="27.3212" gradientUnits="userSpaceOnUse">
<stop stop-color="#D62625"/>
<stop offset="0.39" stop-color="#D62625" stop-opacity="0.5"/>
<stop offset="0.8" stop-color="#D62625" stop-opacity="0"/>
</linearGradient>
<linearGradient id="paint30_linear_40_5875" x1="73.7605" y1="9.36408" x2="66.3488" y2="32.3405" gradientUnits="userSpaceOnUse">
<stop stop-color="#F97F73"/>
<stop offset="0.56" stop-color="#F97F73" stop-opacity="0.5"/>
<stop offset="1" stop-color="#F97F73" stop-opacity="0"/>
</linearGradient>
<linearGradient id="paint31_linear_40_5875" x1="58.995" y1="26.3175" x2="52.0236" y2="23.9139" gradientUnits="userSpaceOnUse">
<stop stop-color="#D62625"/>
<stop offset="0.5" stop-color="#E53D3D"/>
<stop offset="1" stop-color="#F55455"/>
</linearGradient>
<linearGradient id="paint32_linear_40_5875" x1="53.1981" y1="27.5207" x2="53.0745" y2="31.4735" gradientUnits="userSpaceOnUse">
<stop stop-color="#99130F" stop-opacity="0"/>
<stop offset="0.56" stop-color="#99130F" stop-opacity="0.5"/>
<stop offset="1" stop-color="#99130F"/>
</linearGradient>
<linearGradient id="paint33_linear_40_5875" x1="49.0418" y1="18.1141" x2="53.1182" y2="29.6024" gradientUnits="userSpaceOnUse">
<stop stop-color="#F97F73"/>
<stop offset="0.63" stop-color="#F97F73" stop-opacity="0.5"/>
<stop offset="1" stop-color="#F97F73" stop-opacity="0"/>
</linearGradient>
</defs>
</svg>
