<svg width="113" height="112" viewBox="0 0 113 112" fill="none" xmlns="http://www.w3.org/2000/svg">
<g clip-path="url(#clip0_242_4199)">
<mask id="mask0_242_4199" style="mask-type:luminance" maskUnits="userSpaceOnUse" x="-4" y="-4" width="121" height="120">
<path d="M116.5 -4H-3.5V116H116.5V-4Z" fill="white"/>
</mask>
<g mask="url(#mask0_242_4199)">
<path d="M55.3322 29.0767L11.9014 43.9977L56.9309 61.9949L101.872 43.82L55.3322 29.0767Z" fill="#FFED69"/>
<path d="M55.3322 29.0767L11.9014 43.9977L56.9309 61.9949L101.872 43.82L55.3322 29.0767Z" stroke="#EA8206" stroke-width="2.10938" stroke-linecap="round" stroke-linejoin="round"/>
<path d="M56.3089 71.7081L55.332 29.0767L56.3089 71.7081Z" fill="#FFED69"/>
<path d="M56.3089 71.7081L55.332 29.0767" stroke="#EA8206" stroke-width="2.10938" stroke-linecap="round" stroke-linejoin="round"/>
<path d="M17.8116 92.2556L11.8262 44.1143L56.3982 61.946V108.34L17.8116 92.2556Z" fill="url(#paint0_linear_242_4199)"/>
<path d="M17.8116 92.2556L11.8262 44.1143L56.3982 61.946V108.34L17.8116 92.2556Z" stroke="#EA8206" stroke-width="2.10938" stroke-linecap="round" stroke-linejoin="round"/>
<path d="M94.985 91.7864L101.619 43.5811L56.3984 61.9455V108.34L94.985 91.7864Z" fill="#F99F00"/>
<path d="M94.985 91.7864L101.619 43.5811L56.3984 61.9455V108.34L94.985 91.7864Z" stroke="#EA8206" stroke-width="2.10938" stroke-linecap="round" stroke-linejoin="round"/>
<g opacity="0.54">
<path d="M14.0049 60.7959L12.4521 49.1064L56.4996 67.3532V79.3118L14.0049 60.7959Z" fill="#EA8206"/>
<path d="M99.2418 61.5372L100.84 49.2236L56.5 67.3532V79.3118L99.2418 61.5372Z" fill="#EA8206"/>
</g>
<path d="M71.2388 102.325L72.386 54.9219L83.8432 50.9253L81.5414 97.7068L71.2388 102.325Z" fill="#BC0404"/>
<path d="M41.3966 102.326L39.6128 54.6557L28.9551 50.6592L31.686 98.0625L41.3966 102.326Z" fill="#DD0505"/>
<g opacity="0.54">
<path d="M29.3623 56.1118L39.9561 60.5003L40.3144 72.2598L29.8259 67.6897L29.3623 56.1118Z" fill="#990000"/>
<path d="M83.4464 56.3354L72.5489 60.7912L71.9697 72.8783C71.9697 72.8783 83.0446 68.6026 83.1023 68.2487C83.16 67.8948 83.4464 56.3354 83.4464 56.3354Z" fill="#990000"/>
</g>
<path d="M71.2388 102.325L72.386 54.9219L83.8432 50.9253L81.5414 97.7068L71.2388 102.325Z" stroke="#990000" stroke-width="2.10938" stroke-linecap="round" stroke-linejoin="round"/>
<path d="M41.3966 102.326L39.6128 54.6557L28.9551 50.6592L31.686 98.0625L41.3966 102.326Z" stroke="#990000" stroke-width="2.10938" stroke-linecap="round" stroke-linejoin="round"/>
<path d="M56.4996 28.0464L10.1084 42.602L56.4996 61.3762L102.891 42.602L56.4996 28.0464Z" fill="#FFED69"/>
<path d="M56.4996 28.0464L10.1084 42.602L56.4996 61.3762L102.891 42.602L56.4996 28.0464Z" stroke="#EA8206" stroke-width="2.10938" stroke-linecap="round" stroke-linejoin="round"/>
<path d="M11.6611 54.292L10.1084 42.6025L56.4996 61.3767V73.3352L11.6611 54.292Z" fill="#FFD917"/>
<path d="M11.6611 54.292L10.1084 42.6025L56.4996 61.3767V73.3352L11.6611 54.292Z" stroke="#EA8206" stroke-width="2.10938" stroke-linecap="round" stroke-linejoin="round"/>
<path d="M101.293 54.9161L102.891 42.6025L56.5 61.3767V73.3352L101.293 54.9161Z" fill="#FFB522"/>
<path d="M101.293 54.9161L102.891 42.6025L56.5 61.3767V73.3352L101.293 54.9161Z" stroke="#EA8206" stroke-width="2.10938" stroke-linecap="round" stroke-linejoin="round"/>
<path d="M27.5586 49.5845L73.0323 33.2422L84.0455 36.6172L38.927 54.3805L27.5586 49.5845Z" fill="#AF0808"/>
<path d="M27.5586 49.5845L73.0323 33.2422L84.0455 36.6172L38.927 54.3805L27.5586 49.5845Z" stroke="#990000" stroke-width="2.10938" stroke-linecap="round" stroke-linejoin="round"/>
<path d="M40.4113 67.1785L39.7205 54.5059L27.5586 49.5845L28.4211 61.8496L40.4113 67.1785Z" fill="#C90000"/>
<path d="M40.4113 67.1785L39.7205 54.5059L27.5586 49.5845L28.4211 61.8496L40.4113 67.1785Z" stroke="#990000" stroke-width="2.10938" stroke-linecap="round" stroke-linejoin="round"/>
<path d="M85.8229 49.5845L40.3492 33.2422L29.3359 36.6172L72.3859 54.3891L85.8229 49.5845Z" fill="#AF0808"/>
<path d="M85.8229 49.5845L40.3492 33.2422L29.3359 36.6172L72.3859 54.3891L85.8229 49.5845Z" stroke="#990000" stroke-width="2.10938" stroke-linecap="round" stroke-linejoin="round"/>
<path d="M72.2712 67.8088L72.6523 54.9219L85.8228 49.5845L84.9087 62.649L72.2712 67.8088Z" fill="#BC0404"/>
<path d="M72.2712 67.8088L72.6523 54.9219L85.8228 49.5845L84.9087 62.649L72.2712 67.8088Z" stroke="#990000" stroke-width="2.10938" stroke-linecap="round" stroke-linejoin="round"/>
<path d="M60.3875 44.1428C60.3875 44.1428 78.21 41.1503 87.9549 35.7594C102.324 27.8104 94.6805 20.7786 94.6805 20.7786C94.6805 20.7786 80.9989 12.399 78.8804 5.79785C78.8804 5.79785 82.7396 16.3375 75.1454 27.4475C67.5511 38.5576 56.7432 42.1035 56.7432 42.1035L60.3875 44.1428Z" fill="#AF0000"/>
<path d="M60.3875 44.1428C60.3875 44.1428 78.21 41.1503 87.9549 35.7594C102.324 27.8104 94.6805 20.7786 94.6805 20.7786C94.6805 20.7786 80.9989 12.399 78.8804 5.79785C78.8804 5.79785 82.7396 16.3375 75.1454 27.4475C67.5511 38.5576 56.7432 42.1035 56.7432 42.1035L60.3875 44.1428Z" stroke="#990000" stroke-width="2.10938" stroke-linecap="round" stroke-linejoin="round"/>
<path d="M56.7429 42.1035C56.7429 42.1035 53.4954 23.7127 59.9719 11.9305C66.4484 0.148217 79.8659 4.41173 79.8659 4.41173C79.8659 4.41173 87.2114 14.8595 94.9453 20.728C94.9453 20.728 76.7466 14.4078 68.1666 26.9038C59.5866 39.3997 58.9331 44.0293 58.9331 44.0293L56.7429 42.1035Z" fill="#FF0B0B"/>
<path d="M56.7429 42.1035C56.7429 42.1035 53.4954 23.7127 59.9719 11.9305C66.4484 0.148217 79.8659 4.41173 79.8659 4.41173C79.8659 4.41173 87.2114 14.8595 94.9453 20.728C94.9453 20.728 76.7466 14.4078 68.1666 26.9038C59.5866 39.3997 58.9331 44.0293 58.9331 44.0293L56.7429 42.1035Z" stroke="#990000" stroke-width="2.10938" stroke-linecap="round" stroke-linejoin="round"/>
<path d="M58.231 23.2362C58.231 23.2362 59.0602 12.578 65.5732 8.315C72.0863 4.05195 75.9942 5.47297 75.9942 5.47297C75.9942 5.47297 79.1916 12.4599 85.8232 16.9599C85.8232 16.9599 74.3365 17.0783 69.5996 21.6966C64.8626 26.315 64.2706 28.565 64.2706 28.565C64.2706 28.565 62.3756 22.7626 58.231 23.2362Z" fill="url(#paint1_linear_242_4199)"/>
<path d="M49.7674 37.7569L55.3791 40.8272C55.3791 40.8272 53.8685 30.1777 52.7168 18.6788C51.5651 7.17988 37.8609 -0.909106 29.8889 7.53847C29.8889 7.53847 25.9388 20.6876 21.592 27.6626C21.592 27.6626 27.4831 19.6378 35.6023 20.5632C43.7215 21.4885 49.7674 37.7569 49.7674 37.7569Z" fill="#AF0000"/>
<path d="M49.7674 37.7569L55.3791 40.8272C55.3791 40.8272 53.8685 30.1777 52.7168 18.6788C51.5651 7.17988 37.8609 -0.909106 29.8889 7.53847C29.8889 7.53847 25.9388 20.6876 21.592 27.6626C21.592 27.6626 27.4831 19.6378 35.6023 20.5632C43.7215 21.4885 49.7674 37.7569 49.7674 37.7569Z" stroke="#990000" stroke-width="2.10938" stroke-linecap="round" stroke-linejoin="round"/>
<path d="M55.3796 40.8268C55.3796 40.8268 53.6387 36.8882 45.6819 30.1246C37.7251 23.361 25.4258 19.7696 29.8895 7.53809C29.8895 7.53809 22.178 23.9047 16.1094 30.4529C16.1094 30.4529 17.8238 38.4852 28.5146 40.1959C39.2054 41.9066 43.6616 37.2807 55.3796 40.8268Z" fill="#FF0B0B"/>
<path d="M55.3796 40.8268C55.3796 40.8268 53.6387 36.8882 45.6819 30.1246C37.7251 23.361 25.4258 19.7696 29.8895 7.53809C29.8895 7.53809 22.178 23.9047 16.1094 30.4529C16.1094 30.4529 17.8238 38.4852 28.5146 40.1959C39.2054 41.9066 43.6616 37.2807 55.3796 40.8268Z" stroke="#990000" stroke-width="2.10938" stroke-linecap="round" stroke-linejoin="round"/>
<path d="M19.3887 32.4726C19.3887 32.4726 26.257 28.6832 28.9807 19.4463C28.9807 19.4463 33.007 25.4859 41.178 29.1569C41.178 29.1569 33.007 31.9989 31.7044 38.6306C31.7044 38.6306 22.4677 38.2753 19.3887 32.4726Z" fill="url(#paint2_linear_242_4199)"/>
<path d="M57.7944 43.2793C57.7944 43.2793 64.9616 45.2729 68.9216 50.3924C72.8816 55.5118 83.1669 57.9242 83.1669 57.9242C83.1669 57.9242 85.1734 49.5582 90.2179 47.3598C90.2179 47.3598 83.7313 47.8086 78.5809 44.8801C73.4305 41.9516 59.65 40.0867 55.4331 41.8911L57.7944 43.2793Z" fill="#FF0B0B"/>
<path d="M57.7944 43.2793C57.7944 43.2793 64.9616 45.2729 68.9216 50.3924C72.8816 55.5118 83.1669 57.9242 83.1669 57.9242C83.1669 57.9242 85.1734 49.5582 90.2179 47.3598C90.2179 47.3598 83.7313 47.8086 78.5809 44.8801C73.4305 41.9516 59.65 40.0867 55.4331 41.8911L57.7944 43.2793Z" stroke="#990000" stroke-width="2.10938" stroke-linecap="round" stroke-linejoin="round"/>
<path d="M56.6725 41.5248C56.6725 41.5248 49.0782 41.942 45.1527 49.3267C41.2272 56.7114 40.2749 58.4064 40.2749 58.4064C40.2749 58.4064 35.3591 52.3888 27.8556 52.0094C20.3521 51.6299 17.6279 51.7947 17.6279 51.7947C17.6279 51.7947 26.3047 47.7037 36.4979 43.2156C46.6911 38.7276 54.6568 39.6341 54.6568 39.6341L56.6725 41.5248Z" fill="#FF0B0B"/>
<path d="M56.6725 41.5248C56.6725 41.5248 49.0782 41.942 45.1527 49.3267C41.2272 56.7114 40.2749 58.4064 40.2749 58.4064C40.2749 58.4064 35.3591 52.3888 27.8556 52.0094C20.3521 51.6299 17.6279 51.7947 17.6279 51.7947C17.6279 51.7947 26.3047 47.7037 36.4979 43.2156C46.6911 38.7276 54.6568 39.6341 54.6568 39.6341L56.6725 41.5248Z" stroke="#990000" stroke-width="2.10938" stroke-linecap="round" stroke-linejoin="round"/>
<path d="M55.8539 35.9883C55.8539 35.9883 54.7613 39.9989 60.3867 44.1429C60.3867 44.1429 59.1089 46.7738 53.311 43.5914C53.311 43.5914 51.8356 42.5013 52.7949 37.7004C52.7949 37.7004 52.9008 36.3431 55.8539 35.9883Z" fill="#FF0B0B"/>
<path d="M55.8539 35.9883C55.8539 35.9883 54.7613 39.9989 60.3867 44.1429C60.3867 44.1429 59.1089 46.7738 53.311 43.5914C53.311 43.5914 51.8356 42.5013 52.7949 37.7004C52.7949 37.7004 52.9008 36.3431 55.8539 35.9883Z" stroke="#990000" stroke-width="2.10938" stroke-linecap="round" stroke-linejoin="round"/>
</g>
</g>
<defs>
<linearGradient id="paint0_linear_242_4199" x1="36.3432" y1="95.1407" x2="33.5012" y2="44.6934" gradientUnits="userSpaceOnUse">
<stop stop-color="#F9D021"/>
<stop offset="0.5" stop-color="#F9B811"/>
<stop offset="1" stop-color="white"/>
</linearGradient>
<linearGradient id="paint1_linear_242_4199" x1="74.7818" y1="25.7661" x2="63.5318" y2="3.02914" gradientUnits="userSpaceOnUse">
<stop offset="0.27" stop-color="white" stop-opacity="0"/>
<stop offset="0.74" stop-color="white" stop-opacity="0.5"/>
<stop offset="1" stop-color="white"/>
</linearGradient>
<linearGradient id="paint2_linear_242_4199" x1="34.4691" y1="39.5939" x2="22.8066" y2="16.0232" gradientUnits="userSpaceOnUse">
<stop offset="0.27" stop-color="white" stop-opacity="0"/>
<stop offset="0.74" stop-color="white" stop-opacity="0.5"/>
<stop offset="1" stop-color="white"/>
</linearGradient>
<clipPath id="clip0_242_4199">
<rect width="120" height="120" fill="white" transform="translate(-3.5 -4)"/>
</clipPath>
</defs>
</svg>
