<svg width="24" height="25" viewBox="0 0 24 25" fill="none" xmlns="http://www.w3.org/2000/svg">
<g clip-path="url(#clip0_504_32802)">
<g clip-path="url(#clip1_504_32802)">
<mask id="mask0_504_32802" style="mask-type:luminance" maskUnits="userSpaceOnUse" x="-9" y="-14" width="42" height="42">
<path d="M32.5713 -13.2144H-8.57153V27.9285H32.5713V-13.2144Z" fill="white"/>
</mask>
<g mask="url(#mask0_504_32802)">
<path d="M11.7573 1.54883C17.8774 1.54883 22.8465 6.51794 22.8465 12.6381C22.8465 18.7583 17.8774 23.7274 11.7573 23.7274C5.63708 23.7274 0.667969 18.7583 0.667969 12.6381C0.667969 6.51794 5.63708 1.54883 11.7573 1.54883Z" fill="url(#paint0_linear_504_32802)"/>
<mask id="mask1_504_32802" style="mask-type:luminance" maskUnits="userSpaceOnUse" x="0" y="1" width="23" height="23">
<path d="M11.7573 1.54883C17.8774 1.54883 22.8465 6.51794 22.8465 12.6381C22.8465 18.7583 17.8774 23.7274 11.7573 23.7274C5.63708 23.7274 0.667969 18.7583 0.667969 12.6381C0.667969 6.51794 5.63708 1.54883 11.7573 1.54883Z" fill="url(#paint1_radial_504_32802)"/>
</mask>
<g mask="url(#mask1_504_32802)">
<path d="M11.7573 1.54883C17.8774 1.54883 22.8465 6.51794 22.8465 12.6381C22.8465 18.7583 17.8774 23.7274 11.7573 23.7274C5.63708 23.7274 0.667969 18.7583 0.667969 12.6381C0.667969 6.51794 5.63708 1.54883 11.7573 1.54883Z" fill="url(#paint2_radial_504_32802)"/>
</g>
<path d="M11.7573 1.54883C17.8774 1.54883 22.8465 6.51794 22.8465 12.6381C22.8465 18.7583 17.8774 23.7274 11.7573 23.7274C5.63708 23.7274 0.667969 18.7583 0.667969 12.6381C0.667969 6.51794 5.63708 1.54883 11.7573 1.54883Z" stroke="#AA6100" stroke-width="0.642857" stroke-linecap="round" stroke-linejoin="round"/>
<path d="M11.5667 23.7324H11.9466" stroke="#AA6100" stroke-width="0.642857" stroke-linecap="round" stroke-linejoin="round"/>
<path d="M11.5668 1.58301H11.9467" stroke="#AA6100" stroke-width="0.642857" stroke-linecap="round" stroke-linejoin="round"/>
<path d="M0.702271 12.4482V12.8282" stroke="#AA6100" stroke-width="0.642857" stroke-linecap="round" stroke-linejoin="round"/>
<path d="M22.8516 12.4482V12.8282" stroke="#AA6100" stroke-width="0.642857" stroke-linecap="round" stroke-linejoin="round"/>
<path d="M0.611816 12.638C0.611816 18.7934 5.60191 23.7834 11.7572 23.7834C17.9125 23.7834 22.9026 18.7934 22.9026 12.638C22.9026 6.48269 17.9125 1.49268 11.7572 1.49268C5.60191 1.49268 0.611816 6.48269 0.611816 12.638Z" fill="url(#paint3_linear_504_32802)"/>
<path d="M0.611816 12.638C0.611816 18.7934 5.60191 23.7834 11.7572 23.7834C17.9125 23.7834 22.9026 18.7934 22.9026 12.638C22.9026 6.48269 17.9125 1.49268 11.7572 1.49268C5.60191 1.49268 0.611816 6.48269 0.611816 12.638Z" fill="url(#paint4_radial_504_32802)"/>
<path d="M0.611816 12.638C0.611816 18.7934 5.60191 23.7834 11.7572 23.7834C17.9125 23.7834 22.9026 18.7934 22.9026 12.638C22.9026 6.48269 17.9125 1.49268 11.7572 1.49268C5.60191 1.49268 0.611816 6.48269 0.611816 12.638Z" fill="url(#paint5_radial_504_32802)"/>
<path d="M11.7572 1.49268V2.51136C17.35 2.51136 21.8839 7.04527 21.8839 12.6381C21.8839 18.2309 17.35 22.7647 11.7572 22.7647C6.1645 22.7647 1.63058 18.2309 1.63058 12.6381C1.63058 7.04527 6.1645 2.51136 11.7572 2.51136V1.49268C5.60191 1.49268 0.611816 6.48277 0.611816 12.6381C0.611816 18.7935 5.60191 23.7834 11.7572 23.7834C17.9125 23.7834 22.9026 18.7935 22.9026 12.6381C22.9026 6.48277 17.9125 1.49268 11.7572 1.49268Z" fill="url(#paint6_linear_504_32802)"/>
<path d="M11.7573 1.54883C17.8774 1.54883 22.8465 6.51794 22.8465 12.6381C22.8465 18.7583 17.8774 23.7274 11.7573 23.7274C5.63708 23.7274 0.667969 18.7583 0.667969 12.6381C0.667969 6.51794 5.63708 1.54883 11.7573 1.54883Z" stroke="#AA6100" stroke-width="0.642857" stroke-linecap="round" stroke-linejoin="round"/>
<g opacity="0.15">
<path d="M6.3335 7.56814V12.9791L9.59985 10.7406V19.9685L14.5441 19.9486V4.96826H10.3357L6.3335 7.56814Z" fill="#5E1200"/>
</g>
<path d="M6.72363 7.84196L8.10184 8.92293L11.6672 7.5448L10.5018 5.3877L6.72363 7.84196Z" fill="url(#paint7_linear_504_32802)"/>
<path d="M6.72363 12.2285L8.64111 10.0014L8.58125 8.74308L6.72363 7.8418V12.2285Z" fill="url(#paint8_linear_504_32802)"/>
<path d="M11.1579 7.72472L9.96069 10.0029L10.0194 19.5291H14.154V5.3877L11.1579 7.72472Z" fill="url(#paint9_linear_504_32802)"/>
<path d="M8.34159 9.46257L6.72375 12.2289L9.9607 10.003L11.0381 8.02441L8.34159 9.46257Z" fill="url(#paint10_linear_504_32802)"/>
<path d="M10.5018 5.3877L10.7983 6.82577L12.9555 6.70595L14.154 5.3877H10.5018Z" fill="url(#paint11_linear_504_32802)"/>
<path d="M11.1181 18.6104L10.0195 19.5291H14.1541L12.9556 18.6104H11.1181Z" fill="url(#paint12_linear_504_32802)"/>
<path d="M10.6927 6.21533L7.43262 8.28075V10.9854L10.6927 8.54698V18.9449H13.4197V6.21533H10.6927Z" fill="url(#paint13_linear_504_32802)"/>
</g>
</g>
</g>
<defs>
<linearGradient id="paint0_linear_504_32802" x1="4.84839" y1="3.98228" x2="18.4715" y2="21.3394" gradientUnits="userSpaceOnUse">
<stop offset="0.19" stop-color="#CC7F00"/>
<stop offset="0.41" stop-color="#CC8000"/>
<stop offset="0.52" stop-color="#CC8101"/>
<stop offset="0.62" stop-color="#C07700"/>
<stop offset="0.81" stop-color="#B36D00"/>
<stop offset="0.9" stop-color="#BB6E00"/>
<stop offset="1" stop-color="#C37000"/>
</linearGradient>
<radialGradient id="paint1_radial_504_32802" cx="0" cy="0" r="1" gradientUnits="userSpaceOnUse" gradientTransform="translate(10.1507 0.309961) scale(4.0953)">
<stop stop-color="white"/>
<stop offset="0.05" stop-color="white"/>
<stop offset="0.09" stop-color="white"/>
<stop offset="0.55" stop-color="white" stop-opacity="0.5"/>
<stop offset="1" stop-color="white" stop-opacity="0"/>
</radialGradient>
<radialGradient id="paint2_radial_504_32802" cx="0" cy="0" r="1" gradientUnits="userSpaceOnUse" gradientTransform="translate(10.1507 0.309961) scale(4.0953)">
<stop offset="0.09" stop-color="#FFB80D"/>
<stop offset="0.55" stop-color="#F59D0F"/>
<stop offset="1" stop-color="#EA8211"/>
</radialGradient>
<linearGradient id="paint3_linear_504_32802" x1="4.84833" y1="3.98222" x2="18.4714" y2="21.3394" gradientUnits="userSpaceOnUse">
<stop stop-color="#D38D00"/>
<stop offset="0.26" stop-color="#E28C02"/>
<stop offset="0.52" stop-color="#F28B03"/>
<stop offset="0.76" stop-color="#E38F02"/>
<stop offset="1" stop-color="#D49201"/>
</linearGradient>
<radialGradient id="paint4_radial_504_32802" cx="0" cy="0" r="1" gradientUnits="userSpaceOnUse" gradientTransform="translate(6.29475 18.2054) scale(15.5421)">
<stop stop-color="#FFE20D"/>
<stop offset="0.04" stop-color="#FFE20D"/>
<stop offset="0.07" stop-color="#FFE20D"/>
<stop offset="0.54" stop-color="#F9BD09" stop-opacity="0.55"/>
<stop offset="1" stop-color="#F49806" stop-opacity="0.1"/>
</radialGradient>
<radialGradient id="paint5_radial_504_32802" cx="0" cy="0" r="1" gradientUnits="userSpaceOnUse" gradientTransform="translate(18.9912 6.39293) scale(14.3233)">
<stop stop-color="#FFE20D"/>
<stop offset="0.05" stop-color="#FFE20D"/>
<stop offset="0.09" stop-color="#FFE20D"/>
<stop offset="0.55" stop-color="#F5B20F" stop-opacity="0.5"/>
<stop offset="1" stop-color="#EA8211" stop-opacity="0"/>
</radialGradient>
<linearGradient id="paint6_linear_504_32802" x1="4.76797" y1="3.90186" x2="18.5245" y2="21.2898" gradientUnits="userSpaceOnUse">
<stop stop-color="#F5E827" stop-opacity="0"/>
<stop offset="0.26" stop-color="#FAEE2A" stop-opacity="0.5"/>
<stop offset="0.52" stop-color="#FFF42C"/>
<stop offset="0.76" stop-color="#FAEE2A" stop-opacity="0.5"/>
<stop offset="1" stop-color="#F5E827" stop-opacity="0"/>
</linearGradient>
<linearGradient id="paint7_linear_504_32802" x1="7.49996" y1="8.56261" x2="11.77" y2="6.0717" gradientUnits="userSpaceOnUse">
<stop stop-color="#E8BC05"/>
<stop offset="0.01" stop-color="#E8BC05"/>
<stop offset="0.02" stop-color="#E8BC05"/>
<stop offset="0.52" stop-color="#EBBE07"/>
<stop offset="1" stop-color="#EDC10A"/>
</linearGradient>
<linearGradient id="paint8_linear_504_32802" x1="7.6606" y1="8.24101" x2="7.68109" y2="11.934" gradientUnits="userSpaceOnUse">
<stop stop-color="#EEC108"/>
<stop offset="0.01" stop-color="#EEC108"/>
<stop offset="0.5" stop-color="#F7D132"/>
<stop offset="1" stop-color="#FFE05C"/>
</linearGradient>
<linearGradient id="paint9_linear_504_32802" x1="12.4821" y1="12.902" x2="18.4524" y2="18.6671" gradientUnits="userSpaceOnUse">
<stop stop-color="#FEFABE"/>
<stop offset="0.5" stop-color="#F9E56C"/>
<stop offset="1" stop-color="#F4D11B"/>
</linearGradient>
<linearGradient id="paint10_linear_504_32802" x1="8.46429" y1="9.44674" x2="9.12081" y2="10.7393" gradientUnits="userSpaceOnUse">
<stop stop-color="#F1CB48"/>
<stop offset="0.01" stop-color="#F1CB48"/>
<stop offset="0.51" stop-color="#F3D055"/>
<stop offset="1" stop-color="#F4D463"/>
</linearGradient>
<linearGradient id="paint11_linear_504_32802" x1="11.5179" y1="6.07153" x2="13.3849" y2="5.84589" gradientUnits="userSpaceOnUse">
<stop stop-color="#F1CD09"/>
<stop offset="0.01" stop-color="#F1CD09"/>
<stop offset="0.5" stop-color="#F2D237"/>
<stop offset="1" stop-color="#F3D864"/>
</linearGradient>
<linearGradient id="paint12_linear_504_32802" x1="12.0805" y1="20.4554" x2="12.0445" y2="19.0347" gradientUnits="userSpaceOnUse">
<stop stop-color="#E5C536"/>
<stop offset="0.01" stop-color="#E5C536"/>
<stop offset="0.51" stop-color="#E3C329"/>
<stop offset="1" stop-color="#E1C01B"/>
</linearGradient>
<linearGradient id="paint13_linear_504_32802" x1="10.3927" y1="6.31272" x2="10.3927" y2="18.7663" gradientUnits="userSpaceOnUse">
<stop stop-color="#FBE17B"/>
<stop offset="0.51" stop-color="#FADF76"/>
<stop offset="1" stop-color="#F9DE71"/>
</linearGradient>
<clipPath id="clip0_504_32802">
<rect width="24" height="24" fill="white" transform="translate(0 0.5)"/>
</clipPath>
<clipPath id="clip1_504_32802">
<rect width="24" height="24" fill="white" transform="translate(0 0.5)"/>
</clipPath>
</defs>
</svg>