<svg width="24" height="25" viewBox="0 0 24 25" fill="none" xmlns="http://www.w3.org/2000/svg">
<path d="M11.9055 1.66211C17.9314 1.66211 22.8239 6.55463 22.8239 12.5805C22.8239 18.6063 17.9314 23.4988 11.9055 23.4988C5.8797 23.4988 0.987183 18.6063 0.987183 12.5805C0.987183 6.55463 5.8797 1.66211 11.9055 1.66211Z" fill="#BD672B"/>
<path d="M11.9055 1.66211C17.9314 1.66211 22.8239 6.55463 22.8239 12.5805C22.8239 18.6063 17.9314 23.4988 11.9055 23.4988C5.8797 23.4988 0.987183 18.6063 0.987183 12.5805C0.987183 6.55463 5.8797 1.66211 11.9055 1.66211Z" fill="url(#paint0_linear_504_34105)"/>
<path d="M11.9055 1.66211C17.9314 1.66211 22.8239 6.55463 22.8239 12.5805C22.8239 18.6063 17.9314 23.4988 11.9055 23.4988C5.8797 23.4988 0.987183 18.6063 0.987183 12.5805C0.987183 6.55463 5.8797 1.66211 11.9055 1.66211Z" fill="url(#paint1_radial_504_34105)"/>
<path d="M11.9055 1.66211C17.9314 1.66211 22.8239 6.55463 22.8239 12.5805C22.8239 18.6063 17.9314 23.4988 11.9055 23.4988C5.8797 23.4988 0.987183 18.6063 0.987183 12.5805C0.987183 6.55463 5.8797 1.66211 11.9055 1.66211Z" stroke="#762801" stroke-width="0.629754" stroke-linecap="round" stroke-linejoin="round"/>
<path d="M11.6392 23.4497H12.0113" stroke="#762801" stroke-width="0.629754" stroke-linecap="round" stroke-linejoin="round"/>
<path d="M11.6392 1.75195H12.0113" stroke="#762801" stroke-width="0.629754" stroke-linecap="round" stroke-linejoin="round"/>
<path d="M0.996094 12.3955V12.7677" stroke="#762801" stroke-width="0.629754" stroke-linecap="round" stroke-linejoin="round"/>
<path d="M22.6938 12.3955V12.7677" stroke="#762801" stroke-width="0.629754" stroke-linecap="round" stroke-linejoin="round"/>
<path d="M22.828 12.5788C22.828 18.6104 17.9385 23.4999 11.9069 23.4999C5.87532 23.4999 0.985596 18.6104 0.985596 12.5788C0.985596 6.5472 5.87532 1.65771 11.9069 1.65771C17.9385 1.65771 22.828 6.5472 22.828 12.5788Z" fill="#BD672B"/>
<path d="M0.985596 12.5788C0.985596 18.6104 5.87532 23.4999 11.9069 23.4999C17.9385 23.4999 22.828 18.6104 22.828 12.5788C22.828 6.5472 17.9385 1.65771 11.9069 1.65771C5.87532 1.65771 0.985596 6.5472 0.985596 12.5788Z" fill="url(#paint2_linear_504_34105)"/>
<path d="M0.985596 12.5788C0.985596 18.6104 5.87532 23.4999 11.9069 23.4999C17.9385 23.4999 22.828 18.6104 22.828 12.5788C22.828 6.5472 17.9385 1.65771 11.9069 1.65771C5.87532 1.65771 0.985596 6.5472 0.985596 12.5788Z" fill="url(#paint3_linear_504_34105)"/>
<path d="M0.985596 12.5788C0.985596 18.6104 5.87532 23.4999 11.9069 23.4999C17.9385 23.4999 22.828 18.6104 22.828 12.5788C22.828 6.5472 17.9385 1.65771 11.9069 1.65771C5.87532 1.65771 0.985596 6.5472 0.985596 12.5788Z" fill="url(#paint4_radial_504_34105)"/>
<path d="M0.985596 12.5788C0.985596 18.6104 5.87532 23.4999 11.9069 23.4999C17.9385 23.4999 22.828 18.6104 22.828 12.5788C22.828 6.5472 17.9385 1.65771 11.9069 1.65771C5.87532 1.65771 0.985596 6.5472 0.985596 12.5788Z" fill="url(#paint5_radial_504_34105)"/>
<path d="M11.9571 1.65834V2.6565C17.4142 2.68358 21.8299 7.11532 21.8299 12.5788C21.8299 18.0591 17.3871 22.5018 11.9068 22.5018C6.42648 22.5018 1.98388 18.0591 1.98388 12.5788C1.98388 7.09855 6.42648 2.65587 11.9068 2.65587C11.9236 2.65587 11.9403 2.65643 11.9571 2.6565V1.65834C11.9403 1.65827 11.9236 1.65771 11.9068 1.65771C5.87528 1.65771 0.985718 6.5472 0.985718 12.5788C0.985718 18.6104 5.87528 23.4999 11.9068 23.4999C17.9385 23.4999 22.8279 18.6104 22.8279 12.5788C22.8279 6.56397 17.9655 1.68542 11.9571 1.65834Z" fill="url(#paint6_linear_504_34105)"/>
<mask id="mask0_504_34105" style="mask-type:luminance" maskUnits="userSpaceOnUse" x="0" y="1" width="23" height="23">
<path d="M11.9055 1.66211C17.9314 1.66211 22.8239 6.55463 22.8239 12.5805C22.8239 18.6063 17.9314 23.4988 11.9055 23.4988C5.8797 23.4988 0.987183 18.6063 0.987183 12.5805C0.987183 6.55463 5.8797 1.66211 11.9055 1.66211Z" fill="url(#paint7_linear_504_34105)"/>
</mask>
<g mask="url(#mask0_504_34105)">
<path d="M11.9055 1.66211C17.9314 1.66211 22.8239 6.55463 22.8239 12.5805C22.8239 18.6063 17.9314 23.4988 11.9055 23.4988C5.8797 23.4988 0.987183 18.6063 0.987183 12.5805C0.987183 6.55463 5.8797 1.66211 11.9055 1.66211Z" fill="url(#paint8_linear_504_34105)" fill-opacity="0.74"/>
</g>
<path d="M11.9055 1.66211C17.9314 1.66211 22.8239 6.55463 22.8239 12.5805C22.8239 18.6063 17.9314 23.4988 11.9055 23.4988C5.8797 23.4988 0.987183 18.6063 0.987183 12.5805C0.987183 6.55463 5.8797 1.66211 11.9055 1.66211Z" stroke="#762801" stroke-width="0.629754" stroke-linecap="round" stroke-linejoin="round"/>
<g opacity="0.3">
<path d="M6.3844 10.8252H10.3052C10.3411 10.093 10.4938 9.07158 11.672 9.02624C12.4352 8.99696 12.7582 9.31986 12.7289 9.87767C12.701 10.4067 12.2885 10.6997 11.564 10.6997H9.14721V14.1639H11.564C12.2893 14.1639 12.9442 14.3987 12.9638 15.1621C12.9778 15.7099 12.5331 16.0037 11.7503 16.0037C10.7714 16.0037 10.1247 15.2923 9.9888 14.4771H6.0075C5.97656 16.6496 7.26834 19.9963 11.9851 19.9963C15.2962 19.9963 17.3283 18 17.3952 15.5747C17.4341 14.1627 16.8194 12.6961 15.508 12.2263C16.2519 12.0502 17.2108 10.6801 16.962 8.92154C16.7145 7.17264 14.899 5.31738 11.672 5.31738C8.68277 5.31738 6.36795 7.3333 6.3844 10.8252Z" fill="#5B0000"/>
</g>
<path d="M6.67261 10.5526H10.0867C10.0867 10.0371 10.2345 8.79464 11.7895 8.73246C12.5234 8.70317 12.921 9.17706 12.9931 9.78934C13.0518 10.2884 12.5821 10.9343 11.571 10.9343H9.38205V13.9288H11.571C12.2592 13.9288 13.1693 14.2223 13.1693 15.0738C13.1693 15.7489 12.8602 16.2187 11.6999 16.2187C10.4977 16.2187 9.95135 15.4655 9.8224 14.6921H6.29956C6.29956 16.6004 7.48743 19.7417 11.9656 19.7417C15.1069 19.7417 17.1032 17.843 17.1032 15.426C17.1032 13.9582 16.3692 12.6664 15.0775 12.2482C15.8407 12.0792 16.8978 10.9343 16.6922 9.11409C16.5042 7.44894 14.8903 5.62061 11.8287 5.62061C8.99286 5.62061 6.68111 7.44067 6.67261 10.5526Z" fill="url(#paint9_linear_504_34105)"/>
<path d="M6.67261 10.5526H10.0867C10.0867 10.0371 10.2345 8.79464 11.7895 8.73246C12.5234 8.70317 12.921 9.17706 12.9931 9.78934C13.0518 10.2884 12.5821 10.9343 11.571 10.9343H9.38205V13.9288H11.571C12.2592 13.9288 13.1693 14.2223 13.1693 15.0738C13.1693 15.7489 12.8602 16.2187 11.6999 16.2187C10.4977 16.2187 9.95135 15.4655 9.8224 14.6921H6.29956C6.29956 16.6004 7.48743 19.7417 11.9656 19.7417C15.1069 19.7417 17.1032 17.843 17.1032 15.426C17.1032 13.9582 16.3692 12.6664 15.0775 12.2482C15.8407 12.0792 16.8978 10.9343 16.6922 9.11409C16.5042 7.44894 14.8903 5.62061 11.8287 5.62061C8.99286 5.62061 6.68111 7.44067 6.67261 10.5526Z" fill="url(#paint10_radial_504_34105)"/>
<path d="M6.67261 10.5526H10.0867C10.0867 10.0371 10.2345 8.79464 11.7895 8.73246C12.5234 8.70317 12.921 9.17706 12.9931 9.78934C13.0518 10.2884 12.5821 10.9343 11.571 10.9343H9.38205V13.9288H11.571C12.2592 13.9288 13.1693 14.2223 13.1693 15.0738C13.1693 15.7489 12.8602 16.2187 11.6999 16.2187C10.4977 16.2187 9.95135 15.4655 9.8224 14.6921H6.29956C6.29956 16.6004 7.48743 19.7417 11.9656 19.7417C15.1069 19.7417 17.1032 17.843 17.1032 15.426C17.1032 13.9582 16.3692 12.6664 15.0775 12.2482C15.8407 12.0792 16.8978 10.9343 16.6922 9.11409C16.5042 7.44894 14.8903 5.62061 11.8287 5.62061C8.99286 5.62061 6.68111 7.44067 6.67261 10.5526Z" fill="url(#paint11_linear_504_34105)"/>
<path d="M6.67261 10.5526H10.0867C10.0867 10.0371 10.2345 8.79464 11.7895 8.73246C12.5234 8.70317 12.921 9.17706 12.9931 9.78934C13.0518 10.2884 12.5821 10.9343 11.571 10.9343H9.38205V13.9288H11.571C12.2592 13.9288 13.1693 14.2223 13.1693 15.0738C13.1693 15.7489 12.8602 16.2187 11.6999 16.2187C10.4977 16.2187 9.95135 15.4655 9.8224 14.6921H6.29956C6.29956 16.6004 7.48743 19.7417 11.9656 19.7417C15.1069 19.7417 17.1032 17.843 17.1032 15.426C17.1032 13.9582 16.3692 12.6664 15.0775 12.2482C15.8407 12.0792 16.8978 10.9343 16.6922 9.11409C16.5042 7.44894 14.8903 5.62061 11.8287 5.62061C8.99286 5.62061 6.68111 7.44067 6.67261 10.5526Z" fill="url(#paint12_radial_504_34105)"/>
<path d="M6.67261 10.5526H10.0867C10.0867 10.0371 10.2345 8.79464 11.7895 8.73246C12.5234 8.70317 12.921 9.17706 12.9931 9.78934C13.0518 10.2884 12.5821 10.9343 11.571 10.9343H9.38205V13.9288H11.571C12.2592 13.9288 13.1693 14.2223 13.1693 15.0738C13.1693 15.7489 12.8602 16.2187 11.6999 16.2187C10.4977 16.2187 9.95135 15.4655 9.8224 14.6921H6.29956C6.29956 16.6004 7.48743 19.7417 11.9656 19.7417C15.1069 19.7417 17.1032 17.843 17.1032 15.426C17.1032 13.9582 16.3692 12.6664 15.0775 12.2482C15.8407 12.0792 16.8978 10.9343 16.6922 9.11409C16.5042 7.44894 14.8903 5.62061 11.8287 5.62061C8.99286 5.62061 6.68111 7.44067 6.67261 10.5526Z" fill="url(#paint13_linear_504_34105)"/>
<path d="M6.67261 10.5526H10.0867C10.0867 10.0371 10.2345 8.79464 11.7895 8.73246C12.5234 8.70317 12.921 9.17706 12.9931 9.78934C13.0518 10.2884 12.5821 10.9343 11.571 10.9343H9.38205V13.9288H11.571C12.2592 13.9288 13.1693 14.2223 13.1693 15.0738C13.1693 15.7489 12.8602 16.2187 11.6999 16.2187C10.4977 16.2187 9.95135 15.4655 9.8224 14.6921H6.29956C6.29956 16.6004 7.48743 19.7417 11.9656 19.7417C15.1069 19.7417 17.1032 17.843 17.1032 15.426C17.1032 13.9582 16.3692 12.6664 15.0775 12.2482C15.8407 12.0792 16.8978 10.9343 16.6922 9.11409C16.5042 7.44894 14.8903 5.62061 11.8287 5.62061C8.99286 5.62061 6.68111 7.44067 6.67261 10.5526Z" fill="url(#paint14_linear_504_34105)"/>
<path d="M6.67285 10.5526H10.0869C10.0869 10.0371 10.2347 8.79464 11.7897 8.73246C12.5236 8.70317 12.9213 9.17706 12.9933 9.78934C13.052 10.2884 12.5823 10.9343 11.5712 10.9343H9.38229V12.461C10.8502 12.461 13.2282 12.3043 15.0777 12.2482C15.841 12.0792 16.898 10.9343 16.6924 9.11409C16.5044 7.44894 14.8905 5.62061 11.829 5.62061C8.9931 5.62061 6.68135 7.44067 6.67285 10.5526Z" fill="url(#paint15_linear_504_34105)"/>
<mask id="mask1_504_34105" style="mask-type:luminance" maskUnits="userSpaceOnUse" x="6" y="5" width="11" height="8">
<path d="M6.67285 10.5526H10.0869C10.0869 10.0371 10.2347 8.79464 11.7897 8.73246C12.5236 8.70317 12.9213 9.17706 12.9933 9.78934C13.052 10.2884 12.5823 10.9343 11.5712 10.9343H9.38229V12.461C10.8502 12.461 13.2282 12.3043 15.0777 12.2482C15.841 12.0792 16.898 10.9343 16.6924 9.11409C16.5044 7.44894 14.8905 5.62061 11.829 5.62061C8.9931 5.62061 6.68135 7.44067 6.67285 10.5526Z" fill="url(#paint16_radial_504_34105)"/>
</mask>
<g mask="url(#mask1_504_34105)">
<path d="M6.67285 10.5526H10.0869C10.0869 10.0371 10.2347 8.79464 11.7897 8.73246C12.5236 8.70317 12.9213 9.17706 12.9933 9.78934C13.052 10.2884 12.5823 10.9343 11.5712 10.9343H9.38229V12.461C10.8502 12.461 13.2282 12.3043 15.0777 12.2482C15.841 12.0792 16.898 10.9343 16.6924 9.11409C16.5044 7.44894 14.8905 5.62061 11.829 5.62061C8.9931 5.62061 6.68135 7.44067 6.67285 10.5526Z" fill="url(#paint17_radial_504_34105)"/>
</g>
<path d="M6.67285 10.5526H10.0869C10.0869 10.0371 10.2347 8.79464 11.7897 8.73246C12.5236 8.70317 12.9213 9.17706 12.9933 9.78934C13.052 10.2884 12.5823 10.9343 11.5712 10.9343H9.38229V12.461C10.8502 12.461 13.2282 12.3043 15.0777 12.2482C15.841 12.0792 16.898 10.9343 16.6924 9.11409C16.5044 7.44894 14.8905 5.62061 11.829 5.62061C8.9931 5.62061 6.68135 7.44067 6.67285 10.5526Z" fill="url(#paint18_linear_504_34105)"/>
<path d="M6.67285 10.5526H10.0869C10.0869 10.0371 10.2347 8.79464 11.7897 8.73246C12.5236 8.70317 12.9213 9.17706 12.9933 9.78934C13.052 10.2884 12.5823 10.9343 11.5712 10.9343H9.38229V12.461C10.8502 12.461 13.2282 12.3043 15.0777 12.2482C15.841 12.0792 16.898 10.9343 16.6924 9.11409C16.5044 7.44894 14.8905 5.62061 11.829 5.62061C8.9931 5.62061 6.68135 7.44067 6.67285 10.5526Z" fill="url(#paint19_radial_504_34105)"/>
<path d="M6.67285 10.5526H10.0869C10.0869 10.0371 10.2347 8.79464 11.7897 8.73246C12.5236 8.70317 12.9213 9.17706 12.9933 9.78934C13.052 10.2884 12.5823 10.9343 11.5712 10.9343H9.38229V12.461C10.8502 12.461 13.2282 12.3043 15.0777 12.2482C15.841 12.0792 16.898 10.9343 16.6924 9.11409C16.5044 7.44894 14.8905 5.62061 11.829 5.62061C8.9931 5.62061 6.68135 7.44067 6.67285 10.5526Z" fill="url(#paint20_radial_504_34105)"/>
<path d="M10.4194 11.6973L9.38208 10.9341V13.9286L10.4194 13.1065V11.6973Z" fill="#DD7608"/>
<path d="M9.01009 15.7884L9.82232 14.6924H6.29932L7.34644 15.7297L9.01009 15.7884Z" fill="#C0620F"/>
<path d="M6.67285 10.5524H10.0869L9.07402 9.5542L7.56214 9.56884L6.67285 10.5524Z" fill="#A84A01"/>
<path d="M7.12186 10.053H9.55861C9.55861 9.58327 10.1458 8.11539 11.6136 8.11539C13.0815 8.11539 13.5806 8.96682 13.5806 9.81817C13.5806 10.6695 12.7292 11.4329 11.5844 11.4329H9.99897V13.3998H11.5844C13.0522 13.3998 13.7274 13.8402 13.7274 15.22C13.7274 16.0715 12.7586 16.8054 11.7017 16.8054C10.1458 16.8054 9.49989 15.9835 9.38244 15.2788H6.88696C6.88696 15.9247 7.47413 19.1688 11.8778 19.1688C15.1659 19.1688 16.5458 17.4512 16.5458 15.2494C16.5458 14.0017 15.7091 12.5778 13.9329 12.2842C14.9898 12.0787 16.1641 11.3741 16.1347 9.40718C16.112 7.88073 14.6082 6.14844 11.8191 6.14844C9.23563 6.14844 7.12186 8.11539 7.12186 10.053Z" fill="url(#paint21_radial_504_34105)"/>
<mask id="mask2_504_34105" style="mask-type:luminance" maskUnits="userSpaceOnUse" x="6" y="6" width="11" height="14">
<path d="M7.12186 10.053H9.55861C9.55861 9.58327 10.1458 8.11539 11.6136 8.11539C13.0815 8.11539 13.5806 8.96682 13.5806 9.81817C13.5806 10.6695 12.7292 11.4329 11.5844 11.4329H9.99897V13.3998H11.5844C13.0522 13.3998 13.7274 13.8402 13.7274 15.22C13.7274 16.0715 12.7586 16.8054 11.7017 16.8054C10.1458 16.8054 9.49989 15.9835 9.38244 15.2788H6.88696C6.88696 15.9247 7.47413 19.1688 11.8778 19.1688C15.1659 19.1688 16.5458 17.4512 16.5458 15.2494C16.5458 14.0017 15.7091 12.5778 13.9329 12.2842C14.9898 12.0787 16.1641 11.3741 16.1347 9.40718C16.112 7.88073 14.6082 6.14844 11.8191 6.14844C9.23563 6.14844 7.12186 8.11539 7.12186 10.053Z" fill="url(#paint22_linear_504_34105)"/>
</mask>
<g mask="url(#mask2_504_34105)">
<path d="M7.12186 10.053H9.55861C9.55861 9.58327 10.1458 8.11539 11.6136 8.11539C13.0815 8.11539 13.5806 8.96682 13.5806 9.81817C13.5806 10.6695 12.7292 11.4329 11.5844 11.4329H9.99897V13.3998H11.5844C13.0522 13.3998 13.7274 13.8402 13.7274 15.22C13.7274 16.0715 12.7586 16.8054 11.7017 16.8054C10.1458 16.8054 9.49989 15.9835 9.38244 15.2788H6.88696C6.88696 15.9247 7.47413 19.1688 11.8778 19.1688C15.1659 19.1688 16.5458 17.4512 16.5458 15.2494C16.5458 14.0017 15.7091 12.5778 13.9329 12.2842C14.9898 12.0787 16.1641 11.3741 16.1347 9.40718C16.112 7.88073 14.6082 6.14844 11.8191 6.14844C9.23563 6.14844 7.12186 8.11539 7.12186 10.053Z" fill="url(#paint23_linear_504_34105)"/>
</g>
<defs>
<linearGradient id="paint0_linear_504_34105" x1="14.7383" y1="11.4091" x2="19.5134" y2="16.0268" gradientUnits="userSpaceOnUse">
<stop stop-color="#7F3005" stop-opacity="0"/>
<stop offset="0.5" stop-color="#802F05" stop-opacity="0.5"/>
<stop offset="1" stop-color="#802F05"/>
</linearGradient>
<radialGradient id="paint1_radial_504_34105" cx="0" cy="0" r="1" gradientUnits="userSpaceOnUse" gradientTransform="translate(7.02384 19.163) scale(11.0095)">
<stop stop-color="#7E2F04"/>
<stop offset="0.54" stop-color="#7F2F04" stop-opacity="0.5"/>
<stop offset="1" stop-color="#803004" stop-opacity="0"/>
</radialGradient>
<linearGradient id="paint2_linear_504_34105" x1="14.5821" y1="15.7528" x2="23.6867" y2="26.2744" gradientUnits="userSpaceOnUse">
<stop stop-color="#7F3005" stop-opacity="0"/>
<stop offset="0.5" stop-color="#802F05" stop-opacity="0.5"/>
<stop offset="1" stop-color="#802F05"/>
</linearGradient>
<linearGradient id="paint3_linear_504_34105" x1="3.24657" y1="3.70874" x2="10.595" y2="11.28" gradientUnits="userSpaceOnUse">
<stop stop-color="#7F2F04"/>
<stop offset="0.44" stop-color="#7F2F04" stop-opacity="0.5"/>
<stop offset="0.87" stop-color="#7F3004" stop-opacity="0"/>
</linearGradient>
<radialGradient id="paint4_radial_504_34105" cx="0" cy="0" r="1" gradientUnits="userSpaceOnUse" gradientTransform="translate(5.37199 3.78746) scale(13.0275 13.0275)">
<stop stop-color="#802F05"/>
<stop offset="0.55" stop-color="#802F05" stop-opacity="0.5"/>
<stop offset="1" stop-color="#802F05" stop-opacity="0"/>
</radialGradient>
<radialGradient id="paint5_radial_504_34105" cx="0" cy="0" r="1" gradientUnits="userSpaceOnUse" gradientTransform="translate(19.1479 21.6567) scale(12.0144)">
<stop stop-color="#7E2F04"/>
<stop offset="0.54" stop-color="#7F2F04" stop-opacity="0.5"/>
<stop offset="1" stop-color="#803004" stop-opacity="0"/>
</radialGradient>
<linearGradient id="paint6_linear_504_34105" x1="5.52939" y1="3.70874" x2="18.3924" y2="21.8376" gradientUnits="userSpaceOnUse">
<stop stop-color="#822D01"/>
<stop offset="0.2" stop-color="#AF591C"/>
<stop offset="0.51" stop-color="#DD8536"/>
<stop offset="0.7" stop-color="#AE5722"/>
<stop offset="0.96" stop-color="#7F290E"/>
</linearGradient>
<linearGradient id="paint7_linear_504_34105" x1="3.40386" y1="20.7515" x2="4.62401" y2="19.5314" gradientUnits="userSpaceOnUse">
<stop offset="0.13" stop-color="white" stop-opacity="0"/>
<stop offset="0.37" stop-color="white" stop-opacity="0.5"/>
<stop offset="0.49" stop-color="white"/>
<stop offset="0.59" stop-color="white" stop-opacity="0.5"/>
<stop offset="0.88" stop-color="white" stop-opacity="0"/>
</linearGradient>
<linearGradient id="paint8_linear_504_34105" x1="3.40386" y1="20.7515" x2="4.62401" y2="19.5314" gradientUnits="userSpaceOnUse">
<stop stop-color="#FFA748"/>
<stop offset="0.25" stop-color="#FFA748"/>
<stop offset="0.49" stop-color="#FFA748"/>
<stop offset="0.75" stop-color="#FFA748"/>
<stop offset="1" stop-color="#FFA748"/>
</linearGradient>
<linearGradient id="paint9_linear_504_34105" x1="11.9056" y1="13.4695" x2="13.9557" y2="19.5191" gradientUnits="userSpaceOnUse">
<stop stop-color="#C96309"/>
<stop offset="0.25" stop-color="#D06706"/>
<stop offset="0.5" stop-color="#D76B02"/>
<stop offset="0.75" stop-color="#A93F01"/>
<stop offset="1" stop-color="#7B1300"/>
</linearGradient>
<radialGradient id="paint10_radial_504_34105" cx="0" cy="0" r="1" gradientUnits="userSpaceOnUse" gradientTransform="translate(9.93765 15.28) scale(2.6319)">
<stop stop-color="#DB7E21"/>
<stop offset="0.49" stop-color="#E08423" stop-opacity="0.5"/>
<stop offset="1" stop-color="#E68A26" stop-opacity="0"/>
</radialGradient>
<linearGradient id="paint11_linear_504_34105" x1="6.31656" y1="15.6736" x2="8.18575" y2="14.6887" gradientUnits="userSpaceOnUse">
<stop stop-color="#CC5A0D"/>
<stop offset="0.5" stop-color="#B04406" stop-opacity="0.5"/>
<stop offset="1" stop-color="#952E00" stop-opacity="0"/>
</linearGradient>
<radialGradient id="paint12_radial_504_34105" cx="0" cy="0" r="1" gradientUnits="userSpaceOnUse" gradientTransform="translate(11.5908 16.3034) scale(6.2862)">
<stop stop-color="#C96309"/>
<stop offset="0.25" stop-color="#D1761A" stop-opacity="0.5"/>
<stop offset="0.31" stop-color="#D8882A" stop-opacity="0"/>
</radialGradient>
<linearGradient id="paint13_linear_504_34105" x1="11.6695" y1="13.2333" x2="11.6969" y2="14.9565" gradientUnits="userSpaceOnUse">
<stop stop-color="#9D3D00"/>
<stop offset="0.47" stop-color="#9E3D00" stop-opacity="0.5"/>
<stop offset="0.93" stop-color="#9E3E00" stop-opacity="0"/>
</linearGradient>
<linearGradient id="paint14_linear_504_34105" x1="13.5587" y1="10.3207" x2="12.0112" y2="12.6119" gradientUnits="userSpaceOnUse">
<stop stop-color="#C45208"/>
<stop offset="0.49" stop-color="#C25107" stop-opacity="0.5"/>
<stop offset="0.93" stop-color="#C04F07" stop-opacity="0"/>
</linearGradient>
<linearGradient id="paint15_linear_504_34105" x1="10.8038" y1="6.69961" x2="12.4586" y2="13.0063" gradientUnits="userSpaceOnUse">
<stop stop-color="#A24203"/>
<stop offset="0.28" stop-color="#B04F06"/>
<stop offset="0.57" stop-color="#BF5B08"/>
<stop offset="0.79" stop-color="#B64B04"/>
<stop offset="1" stop-color="#AC3B00"/>
</linearGradient>
<radialGradient id="paint16_radial_504_34105" cx="0" cy="0" r="1" gradientUnits="userSpaceOnUse" gradientTransform="translate(16.3141 8.03784) scale(4.29681)">
<stop stop-color="white"/>
<stop offset="0.01" stop-color="white"/>
<stop offset="0.36" stop-color="white" stop-opacity="0.5"/>
<stop offset="0.7" stop-color="white" stop-opacity="0"/>
</radialGradient>
<radialGradient id="paint17_radial_504_34105" cx="0" cy="0" r="1" gradientUnits="userSpaceOnUse" gradientTransform="translate(16.3141 8.03784) scale(4.29681)">
<stop stop-color="#DE8E28"/>
<stop offset="0.01" stop-color="#DE8E28"/>
<stop offset="0.36" stop-color="#D58321"/>
<stop offset="0.7" stop-color="#CD781A"/>
</radialGradient>
<linearGradient id="paint18_linear_504_34105" x1="6.08065" y1="8.19528" x2="10.5023" y2="8.99923" gradientUnits="userSpaceOnUse">
<stop stop-color="#BE4901"/>
<stop offset="0.51" stop-color="#C34E02" stop-opacity="0.5"/>
<stop offset="1" stop-color="#C75202" stop-opacity="0"/>
</linearGradient>
<radialGradient id="paint19_radial_504_34105" cx="0" cy="0" r="1" gradientUnits="userSpaceOnUse" gradientTransform="translate(13.0079 9.9271) scale(4.29681)">
<stop stop-color="#CE5F07"/>
<stop offset="0.22" stop-color="#CE5E09" stop-opacity="0.5"/>
<stop offset="0.43" stop-color="#CE5D0B" stop-opacity="0"/>
</radialGradient>
<radialGradient id="paint20_radial_504_34105" cx="0" cy="0" r="1" gradientUnits="userSpaceOnUse" gradientTransform="translate(10.0166 9.5335) scale(4.29681)">
<stop stop-color="#DA700D"/>
<stop offset="0.17" stop-color="#D56C0C" stop-opacity="0.5"/>
<stop offset="0.34" stop-color="#D1680C" stop-opacity="0"/>
</radialGradient>
<radialGradient id="paint21_radial_504_34105" cx="0" cy="0" r="1" gradientUnits="userSpaceOnUse" gradientTransform="translate(15.2122 8.8245) scale(11.1433)">
<stop stop-color="#E3963D"/>
<stop offset="0.5" stop-color="#DE8C35"/>
<stop offset="1" stop-color="#D8822C"/>
</radialGradient>
<linearGradient id="paint22_linear_504_34105" x1="4.98589" y1="21.4752" x2="6.87516" y2="19.1529" gradientUnits="userSpaceOnUse">
<stop offset="0.28" stop-color="white" stop-opacity="0"/>
<stop offset="0.32" stop-color="white" stop-opacity="0.5"/>
<stop offset="0.47" stop-color="white"/>
<stop offset="0.65" stop-color="white" stop-opacity="0.5"/>
<stop offset="0.68" stop-color="white" stop-opacity="0"/>
</linearGradient>
<linearGradient id="paint23_linear_504_34105" x1="4.98589" y1="21.4752" x2="6.87516" y2="19.1529" gradientUnits="userSpaceOnUse">
<stop offset="0.47" stop-color="#FFDCA0"/>
<stop offset="0.73" stop-color="#FFD58C"/>
<stop offset="1" stop-color="#FFCE78"/>
</linearGradient>
</defs>
</svg>
